<?xml version="1.0" encoding="UTF-8"?>
<svg width="694px" height="264px" viewBox="0 0 694 264" version="1.1" xmlns="http://www.w3.org/2000/svg" xmlns:xlink="http://www.w3.org/1999/xlink">
    <!-- Generator: Sketch 40.2 (33826) - http://www.bohemiancoding.com/sketch -->
    <title>logo1</title>
    <desc>Created with Sketch.</desc>
    <defs></defs>
    <g id="Page-1" stroke="none" stroke-width="1" fill="none" fill-rule="evenodd">
        <g id="logo1">
            <g id="Page-1">
                <g id="Artboard">
                    <g id="Group">
                        <g id="221b-Baker-Street" fill="#ECC700">
                            <path d="M51.3914241,13.47 L51.8514241,13.93 L52.3114241,15.77 L53.2314241,15.77 L52.7714241,15.31 L53.4614241,14.16 L54.1514241,16.92 L54.1514241,18.76 L55.9914241,22.21 L55.3014241,23.59 L54.6114241,23.59 L54.6114241,22.67 L54.1514241,23.13 L54.1514241,25.43 L56.2214241,26.35 L56.2214241,33.94 L56.6814241,34.4 L56.2214241,34.86 L56.6814241,36.24 L56.6814241,41.53 L55.7614241,44.06 L55.7614241,44.98 L54.1514241,43.6 L54.1514241,46.36 L54.6114241,46.36 L55.3014241,48.43 L54.1514241,49.35 L54.1514241,51.88 L51.8514241,56.25 L50.0114241,57.86 L50.9314241,58.55 L50.2414241,59.47 L50.2414241,61.54 L48.8614241,64.53 L48.4014241,63.84 L47.2514241,66.14 L48.4014241,67.29 L45.8714241,69.82 L45.8714241,70.74 L43.5714241,76.49 L40.8114241,77.41 L41.5014241,78.1 L41.5014241,80.17 L39.6614241,81.09 L39.6614241,86.38 L39.2014241,86.38 L38.7414241,85.92 L38.2814241,86.38 L38.2814241,88.68 L37.8214241,89.14 L37.8214241,91.67 L35.2914241,93.97 L35.2914241,95.12 L33.4514241,97.42 L32.3014241,98.34 L31.3814241,99.95 L30.4614241,100.41 L29.7714241,102.48 L28.3914241,101.33 L28.3914241,99.49 L27.9314241,99.95 L27.4714241,104.78 L27.4714241,108.23 L25.1714241,113.06 L22.6414241,113.06 L22.6414241,114.9 L21.7214241,115.82 L21.2614241,118.35 L19.6514241,122.26 L18.7314241,123.18 L17.5814241,127.78 L15.7414241,129.62 L15.7414241,134.91 L19.1914241,134.91 L20.8014241,136.29 L21.7214241,136.29 L21.7214241,137.9 L22.6414241,135.83 L23.5614241,136.75 L25.1714241,136.75 L27.0114241,135.6 L27.4714241,137.21 L27.9314241,137.21 L27.9314241,136.75 L28.3914241,136.29 L29.5414241,136.75 L30.4614241,136.29 L30.9214241,136.75 L31.8414241,136.75 L30.9214241,137.9 L31.8414241,138.82 L31.8414241,139.74 L32.7614241,139.74 L32.7614241,137.44 L35.2914241,136.75 L35.7514241,135.83 L37.8214241,136.29 L37.8214241,137.21 L36.2114241,137.21 L36.2114241,138.36 L36.6714241,138.82 L36.6714241,139.74 L37.1314241,140.2 L37.1314241,139.28 L40.1214241,139.28 L44.0314241,137.9 L44.4914241,138.36 L44.9514241,138.36 L45.4114241,138.82 L47.4814241,138.82 L47.4814241,143.19 L47.9414241,145.03 L48.8614241,144.11 L48.4014241,143.65 L48.4014241,141.58 L49.3214241,141.58 L50.7014241,142.96 L49.7814241,145.95 L49.3214241,146.64 L50.2414241,146.64 L50.2414241,147.56 L49.3214241,148.48 L48.4014241,150.32 L47.0214241,151.01 L44.9514241,150.32 L44.4914241,149.4 L42.6514241,151.47 L42.6514241,145.95 L41.5014241,145.03 L41.0414241,146.64 L41.0414241,148.94 L40.5814241,151.01 L40.1214241,150.32 L40.1214241,149.4 L38.2814241,147.56 L36.6714241,149.4 L36.2114241,148.94 L35.2914241,148.94 L35.9814241,149.86 L34.8314241,150.32 L33.9114241,151.24 L33.4514241,149.86 L32.7614241,149.4 L32.7614241,148.02 L34.1414241,148.02 L33.4514241,146.64 L33.4514241,145.95 L32.7614241,145.95 L32.0714241,147.79 L31.3814241,145.95 L30.4614241,145.95 L30.0014241,146.64 L30.4614241,147.56 L30.4614241,151.01 L28.8514241,151.01 L27.9314241,151.47 L28.3914241,149.86 L26.3214241,149.86 L25.6314241,151.47 L24.4814241,151.01 L24.0214241,146.64 L21.4914241,145.72 L20.8014241,146.64 L20.8014241,148.71 L18.9614241,151.47 L17.3514241,151.47 L16.8914241,151.01 L15.2814241,151.47 L14.3614241,152.39 L13.4414241,152.39 L12.9814241,151.93 L12.0614241,152.62 L10.4514241,151.93 L9.53142406,152.85 L7.92142406,152.85 L6.54142406,150.32 L4.70142406,152.85 L3.32142406,152.39 L2.63142406,151.01 L1.25142406,149.86 L1.25142406,149.4 L2.17142406,149.4 L2.63142406,148.02 L1.48142406,148.02 L0.561424055,145.95 L2.63142406,143.65 L1.71142406,143.65 L0.791424055,144.11 L0.791424055,141.58 L1.71142406,141.58 L3.55142406,140.43 L2.63142406,138.82 L2.63142406,137.21 L3.32142406,136.75 L3.32142406,135.37 L3.78142406,133.99 L3.78142406,132.38 L4.24142406,131.46 L4.24142406,130.54 L6.54142406,128.01 L6.54142406,126.17 L9.07142406,123.64 L10.9114241,119.27 L12.5214241,119.27 L12.5214241,120.88 L13.6714241,120.88 L14.3614241,118.35 L14.3614241,113.75 L16.4314241,113.06 L17.3514241,115.36 L16.4314241,115.82 L16.8914241,119.73 L16.8914241,122.72 L17.8114241,122.72 L18.2714241,119.27 L19.1914241,118.35 L20.1114241,118.35 L20.8014241,117.43 L20.1114241,115.82 L19.1914241,115.82 L19.1914241,117.43 L18.2714241,117.43 L16.8914241,107.77 L19.8814241,100.18 L20.8014241,99.49 L20.8014241,97.88 L22.1814241,97.88 L22.8714241,96.5 L23.5614241,96.5 L23.5614241,96.04 L23.1014241,95.58 L23.5614241,94.66 L23.5614241,91.67 L24.4814241,89.6 L24.4814241,88.68 L26.5514241,84.77 L26.5514241,84.31 L27.9314241,82.93 L28.3914241,81.55 L28.3914241,80.4 L28.8514241,79.94 L29.5414241,77.64 L29.5414241,76.72 L30.9214241,74.65 L31.3814241,74.65 L31.8414241,76.49 L32.7614241,75.57 L32.7614241,73.73 L32.3014241,73.73 L32.7614241,71.2 L33.9114241,70.28 L33.4514241,69.82 L33.9114241,69.36 L33.9114241,67.75 L34.8314241,67.29 L35.2914241,64.99 L36.2114241,64.99 L36.2114241,65.45 L36.6714241,65.91 L36.6714241,67.29 L37.1314241,67.75 L37.8214241,67.29 L37.8214241,66.37 L39.4314241,65.68 L38.2814241,64.53 L39.2014241,63.38 L39.2014241,62.46 L36.2114241,62.46 L36.2114241,59.01 L37.1314241,59.01 L37.8214241,55.79 L39.6614241,55.1 L39.2014241,54.64 L40.3514241,53.49 L39.2014241,50.73 L39.6614241,50.27 L40.1214241,50.27 L41.0414241,47.74 L42.1914241,48.89 L43.1114241,48.43 L42.1914241,47.97 L42.1914241,47.05 L44.4914241,45.21 L44.4914241,44.06 L43.1114241,43.6 L43.5714241,43.14 L43.5714241,42.68 L43.1114241,42.68 L43.1114241,41.99 L43.5714241,41.53 L43.5714241,40.15 L44.4914241,38.31 L44.0314241,38.31 L44.0314241,37.16 L44.4914241,36.24 L44.4914241,34.86 L45.4114241,34.86 L44.0314241,33.25 L44.0314241,31.87 L44.4914241,30.49 L44.0314241,30.03 L44.0314241,20.83 L44.7214241,19.45 L43.1114241,16.46 L39.6614241,15.77 L38.2814241,17.38 L36.2114241,17.38 L34.8314241,17.84 L32.3014241,17.84 L30.4614241,19.68 L28.3914241,19.68 L28.3914241,18.76 L27.0114241,22.67 L24.0214241,25.66 L24.0214241,26.58 L21.9514241,27.96 L21.2614241,29.57 L20.8014241,29.57 L19.6514241,32.33 L19.1914241,32.79 L18.2714241,36.7 L17.3514241,36.7 L16.4314241,37.62 L16.4314241,38.77 L15.0514241,39.92 L14.3614241,41.99 L13.4414241,42.68 L12.5214241,45.44 L10.9114241,45.44 L10.9114241,47.51 L11.3714241,47.51 L11.3714241,50.73 L10.4514241,51.42 L10.4514241,52.34 L9.53142406,53.26 L8.61142406,53.26 L9.07142406,54.87 L7.69142406,55.79 L7.00142406,52.8 L7.00142406,50.27 L5.62142406,50.27 L5.62142406,54.64 L4.70142406,55.1 L4.24142406,54.64 L4.24142406,54.18 L2.63142406,52.8 L2.63142406,51.88 L3.32142406,51.42 L1.71142406,49.81 L2.63142406,46.36 L1.25142406,44.98 L3.32142406,43.6 L3.32142406,38.31 L4.24142406,35.32 L4.70142406,34.86 L4.70142406,33.25 L5.16142406,32.79 L5.85142406,30.26 L7.00142406,28.88 L7.69142406,25.66 L9.07142406,23.59 L10.4514241,23.13 L10.9114241,22.21 L11.3714241,22.21 L13.4414241,20.83 L14.3614241,20.83 L14.3614241,18.76 L16.4314241,16.92 L16.8914241,17.38 L17.8114241,17.38 L18.2714241,14.85 L20.1114241,13.01 L20.8014241,13.01 L20.8014241,13.47 L21.7214241,14.85 L22.6414241,14.39 L22.6414241,9.56 L26.5514241,6.11 L27.4714241,6.11 L28.1614241,6.8 L28.8514241,6.11 L32.3014241,6.11 L32.9914241,6.8 L33.9114241,6.11 L34.3714241,6.11 L34.3714241,7.03 L35.2914241,10.02 L35.2914241,12.55 L35.7514241,13.01 L36.2114241,10.48 L36.2114241,6.11 L39.6614241,6.11 L40.5814241,7.03 L41.5014241,7.03 L42.6514241,6.11 L44.4914241,6.11 L45.8714241,7.49 L45.8714241,12.55 L46.5614241,11.4 L47.4814241,10.94 L48.1714241,8.18 L49.0914241,9.1 L47.9414241,12.09 L48.8614241,13.01 L49.7814241,12.09 L51.3914241,11.4 L51.3914241,13.47 Z M6.08142406,36.7 L6.08142406,39.69 L6.54142406,41.07 L6.08142406,41.53 L6.08142406,41.99 L6.54142406,41.99 L7.69142406,41.07 L7.00142406,38.77 L8.61142406,37.16 L7.69142406,37.16 L9.07142406,35.78 L8.61142406,35.32 L8.61142406,34.86 L8.15142406,34.4 L8.15142406,33.25 L6.08142406,36.7 Z M12.9814241,34.86 L12.2914241,36.01 L12.9814241,38.77 L12.9814241,41.07 L13.9014241,41.07 L13.9014241,37.62 L13.4414241,34.86 L12.9814241,34.86 Z M13.9014241,123.18 L13.4414241,124.79 L12.0614241,124.79 L12.9814241,123.64 L12.9814241,122.26 L10.9114241,124.1 L10.9114241,125.02 L12.9814241,125.94 L14.3614241,122.72 L13.9014241,123.18 Z M5.85142406,133.53 L6.54142406,136.29 L7.69142406,133.99 L8.15142406,133.99 L8.15142406,132.84 L7.69142406,132.38 L5.85142406,133.53 Z M39.6614241,142.04 L39.2014241,143.19 L40.5814241,144.11 L40.5814241,143.19 L41.5014241,143.19 L41.5014241,142.73 L41.0414241,142.27 L42.1914241,141.58 L42.1914241,141.12 L39.6614241,142.04 Z M21.2614241,108.69 L21.2614241,110.99 L22.6414241,110.99 L22.6414241,108.69 L21.2614241,108.69 Z M27.4714241,138.36 L27.9314241,141.12 L28.8514241,141.12 L28.8514241,139.74 L28.3914241,139.28 L28.8514241,138.36 L28.3914241,137.9 L27.4714241,138.36 Z M37.1314241,144.11 L36.6714241,145.26 L39.2014241,146.64 L39.6614241,145.95 L37.1314241,144.11 Z M21.2614241,100.41 L21.2614241,101.79 L22.6414241,101.79 L23.5614241,100.87 L22.6414241,99.95 L21.2614241,100.41 Z M19.6514241,137.9 L19.1914241,139.74 L18.7314241,140.2 L18.7314241,140.66 L21.2614241,139.97 L20.1114241,137.9 L19.6514241,137.9 Z M39.2014241,69.36 L36.6714241,69.36 L36.6714241,69.82 L38.7414241,70.28 L38.2814241,70.74 L39.2014241,70.74 L40.1214241,68.44 L39.2014241,69.36 Z M23.5614241,140.2 L24.0214241,140.2 L24.4814241,140.66 L25.1714241,139.28 L24.4814241,137.21 L23.5614241,140.2 Z M15.2814241,124.1 L15.2814241,125.71 L17.5814241,126.4 L15.7414241,124.1 L15.2814241,124.1 Z M36.2114241,79.94 L37.1314241,79.94 L37.1314241,78.1 L36.2114241,77.18 L36.2114241,79.94 Z M21.0314241,104.55 L21.7214241,105.24 L22.8714241,104.09 L21.9514241,102.94 L21.0314241,104.55 Z M42.6514241,142.5 L42.6514241,143.19 L43.1114241,143.19 L43.5714241,142.73 L44.4914241,142.73 L44.4914241,141.12 L42.6514241,142.5 Z M31.3814241,143.19 L31.3814241,145.03 L32.3014241,145.03 L32.7614241,144.57 L31.8414241,144.57 L31.8414241,142.27 L31.3814241,143.19 Z M22.6414241,149.86 L21.7214241,149.86 L21.7214241,148.48 L22.6414241,148.48 L22.6414241,149.86 Z M16.4314241,110.07 L15.2814241,110.07 L14.8214241,109.61 L16.4314241,108.92 L16.4314241,110.07 Z M26.5514241,148.48 L27.4714241,148.94 L28.8514241,148.48 L28.3914241,148.02 L26.5514241,148.48 Z M54.6114241,27.96 L55.3014241,30.49 L55.3014241,27.96 L54.6114241,27.96 Z M44.0314241,148.02 L42.8814241,149.17 L44.9514241,148.48 L44.0314241,148.02 Z M17.3514241,135.83 L16.8914241,136.29 L17.3514241,136.75 L17.8114241,136.75 L17.8114241,135.83 L17.3514241,135.83 Z M7.00142406,32.33 L7.69142406,32.33 L7.00142406,31.41 L7.00142406,32.33 Z M24.4814241,141.58 L25.1714241,142.27 L25.1714241,141.58 L24.4814241,141.58 Z M27.0114241,147.1 L27.4714241,147.56 L27.9314241,147.1 L27.0114241,147.1 Z M23.5614241,145.03 L24.0214241,144.57 L23.5614241,144.11 L23.5614241,145.03 Z M27.4714241,95.12 L27.9314241,95.58 L28.3914241,95.12 L27.4714241,95.12 Z M27.9314241,16.92 L27.4714241,17.84 L28.3914241,16.92 L27.9314241,16.92 Z M17.3514241,139.74 L17.8114241,139.74 L17.3514241,138.82 L17.3514241,139.74 Z M51.3914241,35.78 L52.3114241,35.78 L51.8514241,35.32 L51.3914241,35.78 Z M51.3914241,54.64 L50.9314241,55.1 L51.8514241,54.64 L51.3914241,54.64 Z M43.5714241,73.73 L43.5714241,74.19 L44.0314241,73.73 L43.5714241,73.73 Z M44.0314241,72.12 L44.4914241,72.12 L44.0314241,71.66 L44.0314241,72.12 Z M42.6514241,70.74 L43.1114241,71.2 L43.1114241,70.74 L42.6514241,70.74 Z M31.8414241,79.02 L31.8414241,79.48 L32.3014241,78.56 L31.8414241,79.02 Z M39.2014241,140.2 L39.6614241,140.66 L39.6614241,140.2 L39.2014241,140.2 Z M110.041424,13.47 L110.501424,13.93 L110.961424,15.77 L111.881424,15.77 L111.421424,15.31 L112.111424,14.16 L112.801424,16.92 L112.801424,18.76 L114.641424,22.21 L113.951424,23.59 L113.261424,23.59 L113.261424,22.67 L112.801424,23.13 L112.801424,25.43 L114.871424,26.35 L114.871424,33.94 L115.331424,34.4 L114.871424,34.86 L115.331424,36.24 L115.331424,41.53 L114.411424,44.06 L114.411424,44.98 L112.801424,43.6 L112.801424,46.36 L113.261424,46.36 L113.951424,48.43 L112.801424,49.35 L112.801424,51.88 L110.501424,56.25 L108.661424,57.86 L109.581424,58.55 L108.891424,59.47 L108.891424,61.54 L107.511424,64.53 L107.051424,63.84 L105.901424,66.14 L107.051424,67.29 L104.521424,69.82 L104.521424,70.74 L102.221424,76.49 L99.4614241,77.41 L100.151424,78.1 L100.151424,80.17 L98.3114241,81.09 L98.3114241,86.38 L97.8514241,86.38 L97.3914241,85.92 L96.9314241,86.38 L96.9314241,88.68 L96.4714241,89.14 L96.4714241,91.67 L93.9414241,93.97 L93.9414241,95.12 L92.1014241,97.42 L90.9514241,98.34 L90.0314241,99.95 L89.1114241,100.41 L88.4214241,102.48 L87.0414241,101.33 L87.0414241,99.49 L86.5814241,99.95 L86.1214241,104.78 L86.1214241,108.23 L83.8214241,113.06 L81.2914241,113.06 L81.2914241,114.9 L80.3714241,115.82 L79.9114241,118.35 L78.3014241,122.26 L77.3814241,123.18 L76.2314241,127.78 L74.3914241,129.62 L74.3914241,134.91 L77.8414241,134.91 L79.4514241,136.29 L80.3714241,136.29 L80.3714241,137.9 L81.2914241,135.83 L82.2114241,136.75 L83.8214241,136.75 L85.6614241,135.6 L86.1214241,137.21 L86.5814241,137.21 L86.5814241,136.75 L87.0414241,136.29 L88.1914241,136.75 L89.1114241,136.29 L89.5714241,136.75 L90.4914241,136.75 L89.5714241,137.9 L90.4914241,138.82 L90.4914241,139.74 L91.4114241,139.74 L91.4114241,137.44 L93.9414241,136.75 L94.4014241,135.83 L96.4714241,136.29 L96.4714241,137.21 L94.8614241,137.21 L94.8614241,138.36 L95.3214241,138.82 L95.3214241,139.74 L95.7814241,140.2 L95.7814241,139.28 L98.7714241,139.28 L102.681424,137.9 L103.141424,138.36 L103.601424,138.36 L104.061424,138.82 L106.131424,138.82 L106.131424,143.19 L106.591424,145.03 L107.511424,144.11 L107.051424,143.65 L107.051424,141.58 L107.971424,141.58 L109.351424,142.96 L108.431424,145.95 L107.971424,146.64 L108.891424,146.64 L108.891424,147.56 L107.971424,148.48 L107.051424,150.32 L105.671424,151.01 L103.601424,150.32 L103.141424,149.4 L101.301424,151.47 L101.301424,145.95 L100.151424,145.03 L99.6914241,146.64 L99.6914241,148.94 L99.2314241,151.01 L98.7714241,150.32 L98.7714241,149.4 L96.9314241,147.56 L95.3214241,149.4 L94.8614241,148.94 L93.9414241,148.94 L94.6314241,149.86 L93.4814241,150.32 L92.5614241,151.24 L92.1014241,149.86 L91.4114241,149.4 L91.4114241,148.02 L92.7914241,148.02 L92.1014241,146.64 L92.1014241,145.95 L91.4114241,145.95 L90.7214241,147.79 L90.0314241,145.95 L89.1114241,145.95 L88.6514241,146.64 L89.1114241,147.56 L89.1114241,151.01 L87.5014241,151.01 L86.5814241,151.47 L87.0414241,149.86 L84.9714241,149.86 L84.2814241,151.47 L83.1314241,151.01 L82.6714241,146.64 L80.1414241,145.72 L79.4514241,146.64 L79.4514241,148.71 L77.6114241,151.47 L76.0014241,151.47 L75.5414241,151.01 L73.9314241,151.47 L73.0114241,152.39 L72.0914241,152.39 L71.6314241,151.93 L70.7114241,152.62 L69.1014241,151.93 L68.1814241,152.85 L66.5714241,152.85 L65.1914241,150.32 L63.3514241,152.85 L61.9714241,152.39 L61.2814241,151.01 L59.9014241,149.86 L59.9014241,149.4 L60.8214241,149.4 L61.2814241,148.02 L60.1314241,148.02 L59.2114241,145.95 L61.2814241,143.65 L60.3614241,143.65 L59.4414241,144.11 L59.4414241,141.58 L60.3614241,141.58 L62.2014241,140.43 L61.2814241,138.82 L61.2814241,137.21 L61.9714241,136.75 L61.9714241,135.37 L62.4314241,133.99 L62.4314241,132.38 L62.8914241,131.46 L62.8914241,130.54 L65.1914241,128.01 L65.1914241,126.17 L67.7214241,123.64 L69.5614241,119.27 L71.1714241,119.27 L71.1714241,120.88 L72.3214241,120.88 L73.0114241,118.35 L73.0114241,113.75 L75.0814241,113.06 L76.0014241,115.36 L75.0814241,115.82 L75.5414241,119.73 L75.5414241,122.72 L76.4614241,122.72 L76.9214241,119.27 L77.8414241,118.35 L78.7614241,118.35 L79.4514241,117.43 L78.7614241,115.82 L77.8414241,115.82 L77.8414241,117.43 L76.9214241,117.43 L75.5414241,107.77 L78.5314241,100.18 L79.4514241,99.49 L79.4514241,97.88 L80.8314241,97.88 L81.5214241,96.5 L82.2114241,96.5 L82.2114241,96.04 L81.7514241,95.58 L82.2114241,94.66 L82.2114241,91.67 L83.1314241,89.6 L83.1314241,88.68 L85.2014241,84.77 L85.2014241,84.31 L86.5814241,82.93 L87.0414241,81.55 L87.0414241,80.4 L87.5014241,79.94 L88.1914241,77.64 L88.1914241,76.72 L89.5714241,74.65 L90.0314241,74.65 L90.4914241,76.49 L91.4114241,75.57 L91.4114241,73.73 L90.9514241,73.73 L91.4114241,71.2 L92.5614241,70.28 L92.1014241,69.82 L92.5614241,69.36 L92.5614241,67.75 L93.4814241,67.29 L93.9414241,64.99 L94.8614241,64.99 L94.8614241,65.45 L95.3214241,65.91 L95.3214241,67.29 L95.7814241,67.75 L96.4714241,67.29 L96.4714241,66.37 L98.0814241,65.68 L96.9314241,64.53 L97.8514241,63.38 L97.8514241,62.46 L94.8614241,62.46 L94.8614241,59.01 L95.7814241,59.01 L96.4714241,55.79 L98.3114241,55.1 L97.8514241,54.64 L99.0014241,53.49 L97.8514241,50.73 L98.3114241,50.27 L98.7714241,50.27 L99.6914241,47.74 L100.841424,48.89 L101.761424,48.43 L100.841424,47.97 L100.841424,47.05 L103.141424,45.21 L103.141424,44.06 L101.761424,43.6 L102.221424,43.14 L102.221424,42.68 L101.761424,42.68 L101.761424,41.99 L102.221424,41.53 L102.221424,40.15 L103.141424,38.31 L102.681424,38.31 L102.681424,37.16 L103.141424,36.24 L103.141424,34.86 L104.061424,34.86 L102.681424,33.25 L102.681424,31.87 L103.141424,30.49 L102.681424,30.03 L102.681424,20.83 L103.371424,19.45 L101.761424,16.46 L98.3114241,15.77 L96.9314241,17.38 L94.8614241,17.38 L93.4814241,17.84 L90.9514241,17.84 L89.1114241,19.68 L87.0414241,19.68 L87.0414241,18.76 L85.6614241,22.67 L82.6714241,25.66 L82.6714241,26.58 L80.6014241,27.96 L79.9114241,29.57 L79.4514241,29.57 L78.3014241,32.33 L77.8414241,32.79 L76.9214241,36.7 L76.0014241,36.7 L75.0814241,37.62 L75.0814241,38.77 L73.7014241,39.92 L73.0114241,41.99 L72.0914241,42.68 L71.1714241,45.44 L69.5614241,45.44 L69.5614241,47.51 L70.0214241,47.51 L70.0214241,50.73 L69.1014241,51.42 L69.1014241,52.34 L68.1814241,53.26 L67.2614241,53.26 L67.7214241,54.87 L66.3414241,55.79 L65.6514241,52.8 L65.6514241,50.27 L64.2714241,50.27 L64.2714241,54.64 L63.3514241,55.1 L62.8914241,54.64 L62.8914241,54.18 L61.2814241,52.8 L61.2814241,51.88 L61.9714241,51.42 L60.3614241,49.81 L61.2814241,46.36 L59.9014241,44.98 L61.9714241,43.6 L61.9714241,38.31 L62.8914241,35.32 L63.3514241,34.86 L63.3514241,33.25 L63.8114241,32.79 L64.5014241,30.26 L65.6514241,28.88 L66.3414241,25.66 L67.7214241,23.59 L69.1014241,23.13 L69.5614241,22.21 L70.0214241,22.21 L72.0914241,20.83 L73.0114241,20.83 L73.0114241,18.76 L75.0814241,16.92 L75.5414241,17.38 L76.4614241,17.38 L76.9214241,14.85 L78.7614241,13.01 L79.4514241,13.01 L79.4514241,13.47 L80.3714241,14.85 L81.2914241,14.39 L81.2914241,9.56 L85.2014241,6.11 L86.1214241,6.11 L86.8114241,6.8 L87.5014241,6.11 L90.9514241,6.11 L91.6414241,6.8 L92.5614241,6.11 L93.0214241,6.11 L93.0214241,7.03 L93.9414241,10.02 L93.9414241,12.55 L94.4014241,13.01 L94.8614241,10.48 L94.8614241,6.11 L98.3114241,6.11 L99.2314241,7.03 L100.151424,7.03 L101.301424,6.11 L103.141424,6.11 L104.521424,7.49 L104.521424,12.55 L105.211424,11.4 L106.131424,10.94 L106.821424,8.18 L107.741424,9.1 L106.591424,12.09 L107.511424,13.01 L108.431424,12.09 L110.041424,11.4 L110.041424,13.47 Z M64.7314241,36.7 L64.7314241,39.69 L65.1914241,41.07 L64.7314241,41.53 L64.7314241,41.99 L65.1914241,41.99 L66.3414241,41.07 L65.6514241,38.77 L67.2614241,37.16 L66.3414241,37.16 L67.7214241,35.78 L67.2614241,35.32 L67.2614241,34.86 L66.8014241,34.4 L66.8014241,33.25 L64.7314241,36.7 Z M71.6314241,34.86 L70.9414241,36.01 L71.6314241,38.77 L71.6314241,41.07 L72.5514241,41.07 L72.5514241,37.62 L72.0914241,34.86 L71.6314241,34.86 Z M72.5514241,123.18 L72.0914241,124.79 L70.7114241,124.79 L71.6314241,123.64 L71.6314241,122.26 L69.5614241,124.1 L69.5614241,125.02 L71.6314241,125.94 L73.0114241,122.72 L72.5514241,123.18 Z M64.5014241,133.53 L65.1914241,136.29 L66.3414241,133.99 L66.8014241,133.99 L66.8014241,132.84 L66.3414241,132.38 L64.5014241,133.53 Z M98.3114241,142.04 L97.8514241,143.19 L99.2314241,144.11 L99.2314241,143.19 L100.151424,143.19 L100.151424,142.73 L99.6914241,142.27 L100.841424,141.58 L100.841424,141.12 L98.3114241,142.04 Z M79.9114241,108.69 L79.9114241,110.99 L81.2914241,110.99 L81.2914241,108.69 L79.9114241,108.69 Z M86.1214241,138.36 L86.5814241,141.12 L87.5014241,141.12 L87.5014241,139.74 L87.0414241,139.28 L87.5014241,138.36 L87.0414241,137.9 L86.1214241,138.36 Z M95.7814241,144.11 L95.3214241,145.26 L97.8514241,146.64 L98.3114241,145.95 L95.7814241,144.11 Z M79.9114241,100.41 L79.9114241,101.79 L81.2914241,101.79 L82.2114241,100.87 L81.2914241,99.95 L79.9114241,100.41 Z M78.3014241,137.9 L77.8414241,139.74 L77.3814241,140.2 L77.3814241,140.66 L79.9114241,139.97 L78.7614241,137.9 L78.3014241,137.9 Z M97.8514241,69.36 L95.3214241,69.36 L95.3214241,69.82 L97.3914241,70.28 L96.9314241,70.74 L97.8514241,70.74 L98.7714241,68.44 L97.8514241,69.36 Z M82.2114241,140.2 L82.6714241,140.2 L83.1314241,140.66 L83.8214241,139.28 L83.1314241,137.21 L82.2114241,140.2 Z M73.9314241,124.1 L73.9314241,125.71 L76.2314241,126.4 L74.3914241,124.1 L73.9314241,124.1 Z M94.8614241,79.94 L95.7814241,79.94 L95.7814241,78.1 L94.8614241,77.18 L94.8614241,79.94 Z M79.6814241,104.55 L80.3714241,105.24 L81.5214241,104.09 L80.6014241,102.94 L79.6814241,104.55 Z M101.301424,142.5 L101.301424,143.19 L101.761424,143.19 L102.221424,142.73 L103.141424,142.73 L103.141424,141.12 L101.301424,142.5 Z M90.0314241,143.19 L90.0314241,145.03 L90.9514241,145.03 L91.4114241,144.57 L90.4914241,144.57 L90.4914241,142.27 L90.0314241,143.19 Z M81.2914241,149.86 L80.3714241,149.86 L80.3714241,148.48 L81.2914241,148.48 L81.2914241,149.86 Z M75.0814241,110.07 L73.9314241,110.07 L73.4714241,109.61 L75.0814241,108.92 L75.0814241,110.07 Z M85.2014241,148.48 L86.1214241,148.94 L87.5014241,148.48 L87.0414241,148.02 L85.2014241,148.48 Z M113.261424,27.96 L113.951424,30.49 L113.951424,27.96 L113.261424,27.96 Z M102.681424,148.02 L101.531424,149.17 L103.601424,148.48 L102.681424,148.02 Z M76.0014241,135.83 L75.5414241,136.29 L76.0014241,136.75 L76.4614241,136.75 L76.4614241,135.83 L76.0014241,135.83 Z M65.6514241,32.33 L66.3414241,32.33 L65.6514241,31.41 L65.6514241,32.33 Z M83.1314241,141.58 L83.8214241,142.27 L83.8214241,141.58 L83.1314241,141.58 Z M85.6614241,147.1 L86.1214241,147.56 L86.5814241,147.1 L85.6614241,147.1 Z M82.2114241,145.03 L82.6714241,144.57 L82.2114241,144.11 L82.2114241,145.03 Z M86.1214241,95.12 L86.5814241,95.58 L87.0414241,95.12 L86.1214241,95.12 Z M86.5814241,16.92 L86.1214241,17.84 L87.0414241,16.92 L86.5814241,16.92 Z M76.0014241,139.74 L76.4614241,139.74 L76.0014241,138.82 L76.0014241,139.74 Z M110.041424,35.78 L110.961424,35.78 L110.501424,35.32 L110.041424,35.78 Z M110.041424,54.64 L109.581424,55.1 L110.501424,54.64 L110.041424,54.64 Z M102.221424,73.73 L102.221424,74.19 L102.681424,73.73 L102.221424,73.73 Z M102.681424,72.12 L103.141424,72.12 L102.681424,71.66 L102.681424,72.12 Z M101.301424,70.74 L101.761424,71.2 L101.761424,70.74 L101.301424,70.74 Z M90.4914241,79.02 L90.4914241,79.48 L90.9514241,78.56 L90.4914241,79.02 Z M97.8514241,140.2 L98.3114241,140.66 L98.3114241,140.2 L97.8514241,140.2 Z M144.311424,5.42 L144.311424,8.87 L143.851424,10.25 L144.541424,12.32 L142.931424,13.24 L142.241424,12.55 L141.321424,13.7 L141.781424,15.08 L142.701424,16 L141.781424,23.82 L141.781424,27.73 L140.401424,30.72 L140.401424,39.46 L139.481424,41.99 L139.481424,48.2 L137.871424,55.56 L136.031424,56.25 L136.951424,56.94 L136.951424,59.47 L136.491424,61.31 L136.951424,61.31 L136.951424,62.92 L136.031424,64.3 L134.421424,75.57 L133.961424,75.57 L133.961424,71.2 L134.421424,70.28 L133.731424,70.28 L132.581424,74.65 L131.661424,76.95 L133.041424,76.49 L134.421424,77.87 L134.421424,80.4 L133.961424,80.86 L133.501424,83.39 L131.661424,84.31 L133.041424,84.31 L133.041424,88.45 L131.201424,89.6 L130.741424,90.75 L130.051424,91.21 L132.121424,91.21 L132.121424,95.12 L131.661424,96.04 L131.661424,102.94 L131.201424,103.86 L131.201424,108.23 L132.581424,109.61 L132.121424,110.53 L131.661424,110.07 L131.201424,112.6 L131.891424,115.82 L130.051424,130.08 L129.131424,133.99 L129.131424,138.82 L127.981424,142.27 L127.291424,142.27 L126.831424,142.73 L127.981424,144.11 L126.831424,145.26 L126.831424,149.63 L126.141424,150.09 L125.681424,149.4 L124.301424,152.16 L122.921424,152.62 L122.461424,153.08 L120.391424,153.08 L119.471424,153.54 L116.941424,152.85 L117.401424,151.01 L116.481424,150.55 L115.101424,152.62 L113.491424,152.62 L113.491424,151.01 L112.571424,150.09 L112.571424,148.71 L112.111424,148.71 L112.111424,148.25 L112.571424,147.79 L112.571424,144.8 L113.031424,143.88 L113.031424,137.9 L113.951424,128.7 L114.641424,126.63 L115.101424,123.87 L115.101424,120.42 L116.021424,119.5 L116.941424,119.5 L116.941424,114.44 L118.091424,113.29 L117.401424,112.6 L117.401424,111.68 L116.941424,110.53 L117.401424,109.61 L117.401424,106.16 L118.551424,105.7 L118.551424,103.86 L119.931424,102.25 L119.931424,100.41 L119.241424,99.72 L119.931424,98.57 L119.241424,97.65 L119.931424,96.96 L119.931424,88.68 L121.311424,86.15 L122.001424,79.02 L123.841424,79.02 L123.841424,77.41 L122.461424,77.41 L122.461424,74.65 L122.921424,74.19 L122.461424,73.04 L122.921424,71.66 L123.841424,64.07 L125.681424,63.38 L125.681424,62.92 L125.221424,62.92 L125.221424,60.39 L124.761424,59.93 L124.761424,59.01 L123.611424,57.86 L124.301424,54.18 L124.301424,51.65 L124.761424,48.66 L124.761424,44.29 L123.381424,40.84 L122.921424,35.55 L121.771424,35.09 L122.921424,34.17 L122.921424,31.64 L123.381424,30.72 L123.381424,27.73 L125.451424,18.99 L126.141424,18.99 L126.831424,19.68 L127.751424,18.07 L128.671424,12.09 L129.591424,11.17 L130.281424,9.56 L131.201424,11.63 L132.581424,10.25 L132.581424,7.26 L133.041424,6.8 L133.041424,4.27 L134.421424,2.2 L134.421424,1.05 L135.571424,1.05 L136.491424,0.59 L137.411424,1.51 L137.871424,2.89 L138.561424,1.05 L139.941424,1.05 L142.931424,3.81 L143.851424,3.35 L144.311424,5.42 Z M123.841424,80.86 L123.841424,82.93 L122.461424,83.85 L122.461424,84.77 L123.381424,84.77 L123.381424,85.23 L122.461424,85.69 L123.381424,86.38 L122.461424,87.3 L122.461424,89.14 L123.381424,89.14 L124.301424,89.6 L124.761424,87.76 L123.841424,87.76 L123.841424,87.3 L124.301424,86.84 L124.301424,85.23 L125.221424,83.85 L126.831424,83.85 L126.831424,83.39 L125.681424,82.93 L124.531424,80.17 L123.841424,80.86 Z M125.911424,93.97 L125.221424,95.58 L126.141424,97.42 L126.831424,97.42 L126.831424,96.5 L127.751424,96.5 L127.751424,93.97 L125.911424,93.97 Z M130.051424,13.7 L130.741424,14.16 L132.121424,16.23 L132.581424,14.16 L131.431424,12.32 L130.051424,13.7 Z M125.681424,71.66 L124.531424,72.81 L125.221424,74.19 L125.681424,74.19 L125.681424,72.58 L126.831424,73.04 L127.751424,71.66 L125.681424,71.66 Z M128.671424,67.98 L129.131424,69.59 L129.591424,69.13 L129.591424,68.67 L130.741424,67.75 L130.741424,65.91 L128.671424,67.98 Z M122.461424,105.7 L122.461424,106.85 L123.381424,106.85 L123.841424,107.31 L124.761424,107.31 L124.761424,106.16 L125.681424,105.7 L122.461424,105.7 Z M122.921424,102.94 L124.071424,105.01 L124.761424,103.86 L124.301424,101.56 L122.921424,102.94 Z M127.291424,104.78 L126.601424,105.93 L127.291424,107.31 L128.671424,105.7 L128.671424,104.78 L127.291424,104.78 Z M122.461424,99.95 L122.461424,100.87 L123.381424,100.87 L123.381424,101.33 L123.841424,100.87 L123.841424,99.95 L122.461424,99.95 Z M127.291424,89.6 L126.831424,91.21 L127.751424,91.21 L127.751424,89.6 L127.291424,89.6 Z M131.201424,81.78 L131.201424,82.93 L132.121424,82.93 L132.121424,81.78 L131.201424,81.78 Z M127.751424,83.85 L127.751424,84.31 L128.671424,84.31 L128.671424,82.93 L127.751424,83.85 Z M122.461424,38.08 L121.771424,38.54 L122.461424,36.47 L122.461424,38.08 Z M127.751424,86.38 L128.211424,86.84 L128.671424,86.38 L128.211424,85.69 L127.751424,86.38 Z M124.301424,66.37 L125.221424,65.91 L124.761424,65.22 L124.301424,66.37 Z M127.291424,22.9 L127.291424,23.36 L128.211424,23.36 L127.751424,22.9 L127.291424,22.9 Z M126.831424,111.22 L126.831424,111.68 L127.291424,111.22 L127.291424,110.53 L126.831424,111.22 Z M129.591424,71.66 L130.051424,72.12 L130.051424,71.66 L129.591424,71.2 L129.591424,71.66 Z M131.201424,87.76 L131.661424,88.68 L131.661424,87.76 L131.201424,87.76 Z M129.131424,63.38 L129.131424,63.84 L129.591424,63.38 L129.591424,62.92 L129.131424,63.38 Z M127.291424,109.61 L127.751424,109.61 L128.671424,108.69 L127.291424,109.61 Z M138.331424,8.87 L137.871424,9.79 L139.021424,8.18 L138.331424,8.87 Z M122.921424,80.4 L123.381424,80.4 L123.841424,79.94 L122.921424,80.4 Z M127.291424,82.47 L127.751424,82.93 L127.751424,82.47 L127.291424,82.47 Z M170.531424,10.71 L172.141424,12.32 L172.831424,14.39 L172.831424,24.28 L171.911424,32.1 L170.991424,33.02 L172.141424,33.02 L171.451424,36.47 L170.991424,36.93 L170.991424,49.58 L168.461424,64.07 L167.081424,67.06 L166.391424,69.59 L165.701424,70.51 L164.551424,70.51 L163.631424,72.35 L163.631424,75.34 L163.171424,76.26 L163.171424,80.17 L162.251424,82.24 L162.251424,83.16 L161.331424,84.77 L160.181424,90.29 L158.801424,91.9 L159.491424,92.59 L158.801424,93.74 L158.801424,95.81 L157.651424,102.02 L158.341424,102.02 L158.801424,101.1 L159.721424,101.1 L161.791424,99.26 L162.711424,99.72 L168.001424,100.64 L168.921424,101.56 L168.461424,102.48 L169.381424,102.48 L170.071424,105.47 L171.451424,106.16 L171.451424,108 L172.371424,108.92 L174.901424,112.83 L177.201424,115.13 L178.121424,117.43 L178.811424,118.12 L179.271424,120.19 L178.811424,122.26 L175.361424,124.56 L173.291424,125.48 L171.451424,127.32 L170.531424,141.58 L168.921424,142.96 L168.231424,142.96 L166.161424,146.87 L164.781424,147.33 L162.711424,150.78 L160.641424,150.78 L159.261424,151.7 L152.591424,151.7 L150.061424,149.17 L149.141424,147.33 L147.071424,145.49 L146.381424,142.5 L143.621424,137.21 L143.621424,132.84 L143.161424,131.23 L143.161424,128.93 L142.701424,128.24 L142.701424,122.49 L141.781424,118.58 L141.781424,109.38 L142.701424,106.85 L142.241424,105.47 L142.241424,102.02 L142.701424,100.64 L142.701424,98.57 L143.161424,97.65 L142.701424,97.19 L142.701424,90.06 L144.311424,89.37 L143.161424,88.91 L143.161424,85.92 L144.311424,83.16 L144.311424,81.55 L143.621424,81.09 L144.311424,78.79 L144.311424,76.72 L145.691424,72.35 L145.691424,64.99 L146.151424,63.15 L146.151424,47.51 L147.071424,46.59 L147.071424,45.21 L147.531424,44.29 L147.531424,40.84 L149.141424,34.86 L150.061424,33.94 L150.061424,32.1 L151.211424,26.35 L153.051424,22.21 L154.661424,20.6 L155.351424,16.46 L156.961424,14.39 L158.341424,11.63 L159.721424,10.02 L161.331424,10.02 L162.251424,9.1 L162.251424,8.18 L163.171424,8.18 L163.171424,7.26 L164.091424,6.8 L165.701424,8.18 L167.081424,8.18 L167.541424,7.26 L169.611424,9.1 L170.071424,9.1 L170.991424,10.02 L170.531424,10.71 Z M163.631424,22.67 L161.791424,24.51 L160.181424,30.49 L157.421424,46.13 L155.811424,52.34 L154.891424,52.34 L154.891424,58.78 L154.431424,62.69 L153.971424,63.61 L153.971424,67.98 L153.511424,68.9 L153.511424,73.96 L152.591424,80.63 L153.051424,84.08 L153.051424,87.99 L154.661424,87.07 L157.421424,81.55 L158.341424,74.88 L159.261424,71.89 L159.261424,70.05 L160.181424,68.9 L160.181424,66.6 L161.791424,59.24 L161.791424,57.86 L163.171424,51.88 L164.551424,47.74 L164.551424,45.67 L165.241424,43.6 L166.161424,38.77 L167.081424,37.85 L167.081424,33.94 L167.541424,33.48 L168.231424,31.64 L167.541424,31.64 L166.621424,25.66 L165.471424,22.67 L163.631424,22.67 Z M156.041424,105.47 L153.511424,111.91 L152.591424,116.74 L152.591424,127.78 L154.661424,134.91 L155.351424,135.6 L156.961424,139.05 L158.801424,139.51 L160.181424,139.05 L165.011424,131.69 L165.931424,124.79 L163.631424,119.04 L161.791424,116.28 L159.031424,110.53 L157.651424,103.63 L156.041424,105.47 Z M165.701424,66.14 L166.161424,66.6 L166.161424,66.14 L165.701424,66.14 Z M271.731424,20.37 L273.111424,24.05 L274.491424,24.05 L274.491424,25.89 L275.411424,26.81 L276.331424,26.81 L276.331424,39.46 L275.871424,41.07 L275.871424,47.28 L274.491424,51.65 L273.571424,51.65 L272.881424,50.27 L271.961424,50.27 L271.961424,52.11 L273.571424,53.49 L271.961424,55.1 L270.811424,58.78 L269.201424,59.7 L268.741424,61.31 L268.051424,62.23 L266.211424,67.29 L262.301424,73.5 L262.301424,74.42 L263.221424,76.49 L265.751424,76.95 L267.591424,77.87 L274.951424,79.71 L275.871424,81.32 L277.941424,81.32 L280.011424,83.39 L282.541424,84.31 L285.071424,87.99 L286.451424,88.68 L287.141424,90.06 L287.141424,91.44 L288.981424,92.13 L288.981424,94.89 L290.131424,96.04 L291.511424,100.64 L290.821424,105.47 L291.971424,105.47 L291.971424,107.08 L291.511424,108 L291.511424,109.84 L290.591424,114.67 L289.901424,115.82 L289.901424,119.04 L288.981424,122.03 L288.981424,125.02 L286.911424,131.46 L285.071424,133.3 L285.071424,134.22 L284.151424,136.52 L282.311424,137.21 L281.621424,139.74 L278.861424,143.88 L274.031424,148.71 L271.961424,148.71 L271.501424,150.78 L269.201424,150.78 L267.131424,152.16 L266.671424,153.08 L264.371424,153.08 L262.991424,154.46 L262.301424,153.08 L260.921424,154 L258.851424,154.69 L257.931424,154 L254.941424,154 L254.021424,153.08 L245.741424,153.08 L244.821424,154 L242.521424,155.15 L241.371424,156.07 L239.531424,156.07 L239.531424,155.61 L238.611424,155.61 L237.921424,156.99 L236.081424,156.07 L237.001424,155.61 L235.161424,154.69 L234.701424,153.54 L233.781424,152.62 L233.781424,148.25 L232.631424,145.95 L233.091424,145.26 L233.781424,142.5 L232.631424,141.35 L233.091424,138.59 L233.091424,134.68 L234.241424,132.38 L233.781424,131.69 L233.781424,122.03 L234.241424,120.19 L233.781424,118.12 L234.241424,116.74 L234.241424,111.91 L234.701424,109.38 L234.241424,109.38 L234.241424,108 L234.701424,107.08 L234.701424,105.47 L234.241424,105.01 L234.241424,95.35 L235.161424,94.43 L235.161424,83.16 L235.621424,81.55 L234.931424,78.56 L235.621424,74.88 L235.621424,66.6 L236.081424,65.68 L236.081424,58.55 L235.621424,57.4 L235.621424,48.2 L234.931424,46.36 L236.081424,45.44 L234.701424,44.29 L234.241424,44.29 L234.241424,41.99 L232.631424,40.38 L231.711424,41.07 L231.251424,37.62 L233.091424,34.63 L233.091424,32.79 L233.781424,31.18 L233.781424,29.34 L234.701424,26.12 L237.001424,21.98 L238.151424,21.98 L239.071424,21.06 L239.531424,21.06 L239.531424,18.53 L241.371424,17.61 L243.441424,17.15 L244.361424,16.23 L244.821424,16.23 L245.281424,15.77 L246.891424,15.31 L247.811424,14.16 L251.261424,13.24 L256.551424,13.24 L257.471424,13.7 L260.001424,14.16 L261.381424,13.7 L261.841424,14.16 L263.221424,14.16 L265.981424,16.92 L269.201424,17.61 L271.731424,20.37 Z M270.121424,94.43 L265.751424,90.06 L262.761424,88.45 L258.851424,85.23 L255.631424,85.23 L248.961424,86.15 L247.811424,88.45 L247.811424,93.97 L246.661424,99.03 L247.351424,100.18 L247.351424,105.01 L246.201424,105.93 L247.351424,108.92 L247.351424,112.83 L249.191424,114.21 L252.181424,114.21 L256.091424,113.29 L257.011424,114.21 L257.931424,114.21 L258.391424,113.29 L259.311424,113.29 L260.001424,114.21 L260.691424,112.83 L262.761424,112.83 L262.761424,113.29 L264.141424,112.6 L265.751424,113.52 L267.131424,112.83 L267.131424,113.98 L269.431424,112.83 L271.961424,114.67 L271.961424,115.82 L273.111424,115.82 L273.111424,117.66 L272.191424,117.66 L270.811424,119.96 L269.201424,119.04 L268.051424,119.73 L265.751424,119.04 L264.831424,119.73 L263.221424,119.73 L260.921424,120.19 L260.001424,120.65 L259.311424,120.19 L257.701424,120.19 L257.011424,121.57 L254.481424,122.95 L249.651424,126.4 L248.271424,129.39 L248.271424,136.29 L250.571424,139.97 L250.571424,140.89 L256.321424,141.58 L258.391424,142.73 L260.461424,142.04 L261.841424,142.04 L264.371424,140.89 L265.751424,140.89 L266.441424,139.51 L268.051424,139.51 L270.121424,137.67 L271.041424,137.21 L273.571424,134.22 L273.571424,133.3 L276.331424,127.78 L277.251424,127.09 L278.861424,122.03 L278.861424,110.99 L278.171424,107.77 L276.791424,105.93 L276.791424,104.55 L274.951424,101.56 L274.951424,101.1 L274.491424,100.64 L273.111424,97.19 L271.731424,96.73 L271.731424,95.12 L270.121424,94.43 Z M260.001424,25.89 L258.161424,24.97 L256.551424,25.89 L251.951424,26.58 L249.191424,29.34 L247.811424,34.86 L248.731424,42.91 L248.731424,57.4 L247.811424,59.93 L247.811424,64.3 L249.191424,68.67 L250.111424,68.67 L252.871424,66.6 L258.391424,55.56 L260.691424,49.35 L261.841424,48.2 L261.841424,46.82 L262.761424,45.44 L262.761424,44.75 L264.371424,40.38 L265.521424,34.86 L264.831424,31.18 L264.831424,28.88 L261.841424,25.89 L260.001424,25.89 Z M272.421424,26.35 L272.421424,28.88 L273.111424,28.88 L274.031424,26.35 L272.421424,26.35 Z M275.871424,118.12 L274.951424,118.58 L274.951424,116.74 L275.871424,116.74 L275.871424,118.12 Z M287.601424,94.43 L287.601424,94.89 L288.061424,94.89 L288.061424,94.43 L287.601424,94.43 Z M275.411424,115.36 L275.411424,114.67 L275.871424,114.67 L275.411424,115.36 Z M262.761424,152.16 L263.221424,152.62 L263.221424,152.16 L262.761424,152.16 Z M287.601424,112.83 L288.061424,113.29 L288.061424,112.83 L287.601424,112.83 Z M264.831424,149.17 L264.831424,149.63 L265.291424,148.71 L264.831424,149.17 Z M323.251424,82.01 L324.631424,83.16 L325.091424,83.16 L326.471424,85.46 L326.471424,90.75 L326.011424,92.59 L326.471424,93.74 L326.011424,95.12 L325.551424,100.18 L325.091424,101.56 L325.091424,103.86 L323.711424,105.93 L322.791424,121.11 L322.791424,133.76 L323.711424,138.13 L325.781424,138.13 L329.461424,131.69 L330.381424,130.77 L331.531424,128.24 L332.911424,126.4 L332.451424,125.94 L332.911424,125.48 L333.831424,122.49 L334.291424,122.03 L334.291424,120.65 L335.441424,119.5 L337.281424,119.5 L337.281424,118.12 L339.351424,118.12 L340.271424,120.65 L339.581424,121.11 L340.271424,125.71 L339.811424,126.86 L340.731424,127.78 L340.731424,128.93 L339.351424,130.31 L339.811424,132.15 L338.201424,135.14 L337.051424,138.82 L335.901424,139.97 L335.901424,141.81 L331.991424,146.87 L330.381424,147.79 L328.771424,150.32 L326.471424,150.32 L323.021424,151.47 L319.341424,150.32 L317.271424,148.25 L315.661424,143.88 L313.361424,143.88 L311.061424,146.87 L307.151424,149.4 L304.621424,150.32 L304.161424,150.78 L302.781424,150.78 L300.941424,148.94 L300.251424,150.78 L298.411424,150.09 L299.331424,149.4 L296.801424,147.33 L295.191424,147.33 L293.351424,143.88 L293.351424,142.96 L292.661424,142.96 L291.741424,139.97 L292.431424,138.59 L291.971424,136.52 L291.511424,136.06 L291.511424,130.77 L291.971424,127.78 L291.971424,125.48 L293.351424,123.87 L293.351424,122.03 L294.041424,121.11 L294.501424,118.58 L294.961424,118.12 L294.961424,115.59 L295.421424,114.67 L295.421424,111.68 L296.341424,110.76 L296.341424,108 L296.801424,107.31 L296.801424,106.39 L297.261424,105.47 L297.261424,103.63 L299.791424,99.72 L299.791424,97.42 L302.321424,93.28 L303.701424,93.28 L304.621424,90.29 L305.081424,89.83 L305.081424,88.45 L306.231424,86.38 L307.611424,85.92 L308.991424,82.7 L311.061424,80.63 L312.901424,79.71 L314.511424,78.1 L315.891424,78.1 L316.351424,78.56 L319.801424,78.56 L320.721424,79.71 L323.251424,80.86 L323.251424,82.01 Z M311.291424,96.5 L308.531424,102.02 L307.151424,104.09 L305.771424,108.46 L304.161424,110.76 L302.781424,118.58 L302.321424,118.58 L302.321424,119.96 L302.781424,119.96 L301.631424,121.11 L303.241424,122.03 L302.781424,124.56 L303.241424,125.94 L304.391424,132.84 L305.541424,134.22 L306.231424,134.22 L309.911424,129.85 L311.061424,126.86 L311.521424,126.4 L313.361424,120.65 L313.361424,119.5 L315.891424,112.83 L315.891424,110.76 L316.811424,104.09 L316.811424,92.82 L316.121424,90.52 L311.291424,96.5 Z M297.951424,119.5 L298.411424,119.5 L297.951424,118.58 L297.951424,119.5 Z M358.441424,10.02 L359.131424,10.71 L358.441424,11.4 L360.281424,12.32 L360.281424,17.15 L360.741424,19.68 L358.901424,21.52 L359.821424,23.13 L359.821424,24.51 L360.741424,24.51 L360.741424,24.05 L360.281424,23.59 L361.661424,23.59 L361.661424,26.12 L362.351424,26.58 L362.351424,27.04 L361.201424,27.04 L360.741424,26.12 L360.281424,26.12 L360.281424,28.42 L361.201424,28.42 L362.581424,27.73 L361.661424,29.34 L361.661424,30.95 L361.201424,30.95 L360.281424,29.8 L360.741424,29.34 L359.821424,29.34 L359.821424,31.41 L361.891424,33.48 L361.201424,34.17 L360.281424,33.71 L359.131424,35.78 L359.821424,37.16 L359.821424,40.61 L359.361424,41.53 L359.361424,43.14 L358.441424,44.98 L358.441424,49.81 L358.901424,50.27 L357.751424,51.88 L357.291424,53.26 L355.451424,53.26 L355.451424,54.64 L356.371424,56.71 L357.291424,56.25 L356.371424,58.09 L355.451424,64.07 L354.761424,65.22 L354.071424,69.36 L353.381424,70.74 L351.541424,78.56 L350.161424,81.09 L349.011424,86.84 L349.701424,88.68 L350.621424,87.76 L352.921424,86.38 L354.991424,84.31 L357.061424,83.62 L358.441424,81.09 L358.901424,81.09 L362.581424,77.18 L363.271424,80.86 L365.111424,79.02 L365.111424,76.72 L365.571424,77.18 L367.871424,77.18 L369.481424,79.71 L369.481424,82.01 L370.401424,83.39 L370.401424,85 L369.481424,85.46 L369.481424,87.76 L368.101424,90.75 L368.101424,91.67 L366.031424,94.2 L365.341424,96.73 L363.271424,97.88 L363.271424,100.41 L361.431424,105.7 L360.281424,106.39 L360.281424,106.85 L359.361424,108.23 L358.441424,108.69 L358.441424,109.61 L357.751424,110.76 L357.751424,111.68 L356.831424,112.6 L356.831424,114.67 L354.991424,117.43 L354.531424,117.43 L354.071424,120.42 L352.461424,123.41 L352.461424,129.62 L354.071424,129.62 L354.071424,133.53 L356.371424,140.89 L358.211424,144.34 L360.741424,144.34 L361.201424,143.88 L365.571424,142.04 L366.721424,137.21 L368.561424,133.99 L369.481424,133.07 L369.481424,130.54 L372.931424,123.87 L373.391424,124.33 L375.461424,123.41 L375.461424,125.25 L374.081424,125.25 L373.391424,127.32 L373.391424,128.7 L374.311424,126.63 L376.381424,127.32 L376.381424,132.61 L375.921424,133.07 L376.381424,133.53 L376.381424,134.45 L375.461424,134.45 L375.461424,135.6 L375.921424,136.52 L373.851424,140.89 L373.851424,142.73 L372.241424,144.57 L373.161424,145.49 L372.011424,147.56 L369.941424,147.56 L369.941424,150.55 L369.481424,151.01 L369.021424,150.09 L368.101424,151.93 L368.101424,154 L365.111424,156.99 L363.501424,156.99 L362.811424,158.37 L361.661424,158.37 L360.051424,156.76 L358.671424,158.14 L356.371424,155.84 L355.911424,153.54 L355.451424,155.84 L354.991424,155.84 L354.991424,154.92 L353.841424,155.61 L351.541424,151.93 L351.541424,148.71 L349.701424,148.71 L350.621424,147.56 L349.701424,146.64 L348.551424,146.64 L347.171424,142.96 L347.171424,140.89 L346.711424,140.43 L346.251424,138.36 L346.251424,136.06 L346.711424,135.6 L345.791424,134.91 L345.791424,134.45 L345.101424,134.45 L344.641424,131.23 L343.721424,131.23 L343.721424,132.15 L343.261424,132.61 L341.881424,136.06 L341.881424,137.9 L340.271424,142.27 L338.201424,150.55 L334.751424,150.55 L332.451424,147.1 L332.451424,145.72 L333.601424,145.26 L331.071424,142.27 L331.991424,141.35 L331.071424,140.43 L331.071424,133.99 L330.381424,132.84 L331.071424,130.08 L331.071424,127.78 L331.991424,126.63 L332.451424,125.25 L331.991424,123.87 L333.141424,122.72 L332.451424,121.34 L331.991424,119.04 L331.531424,118.58 L331.531424,116.97 L332.221424,116.97 L331.531424,115.59 L331.531424,106.85 L331.991424,102.94 L331.991424,95.12 L333.141424,93.05 L332.451424,92.59 L332.451424,87.3 L333.141424,85.46 L333.601424,78.1 L334.061424,76.72 L334.061424,75.57 L334.981424,74.19 L333.831424,74.19 L334.981424,69.82 L334.521424,68.9 L334.981424,67.29 L334.981424,64.53 L335.441424,62 L335.441424,57.17 L336.361424,56.25 L336.361424,52.34 L337.511424,50.27 L338.431424,45.9 L338.431424,41.07 L339.811424,38.77 L340.271424,36.24 L341.421424,32.79 L341.881424,32.33 L341.421424,31.87 L341.881424,28.42 L342.341424,27.96 L342.341424,27.04 L343.261424,25.43 L343.261424,23.13 L344.181424,22.21 L344.181424,24.05 L345.101424,25.43 L345.791424,25.43 L346.251424,23.59 L345.101424,22.67 L346.021424,21.75 L344.641424,21.06 L344.641424,19.22 L345.791424,16.69 L346.711424,15.77 L346.711424,14.85 L349.011424,10.02 L350.621424,8.41 L354.071424,7.03 L354.531424,7.49 L355.911424,7.49 L355.911424,10.02 L355.451424,10.94 L355.911424,10.94 L358.441424,9.33 L358.441424,10.02 Z M349.241424,27.04 L348.091424,30.49 L348.091424,36.7 L346.941424,36.7 L347.631424,38.31 L346.941424,42.45 L346.251424,42.45 L346.251424,56.25 L345.101424,62 L345.791424,68.44 L346.251424,68.44 L347.631424,65.45 L347.631424,64.07 L349.011424,60.16 L350.621424,57.86 L350.621424,55.1 L351.541424,53.72 L353.381424,45.9 L353.381424,44.06 L354.531424,43.14 L354.991424,44.06 L354.991424,45.9 L355.911424,46.36 L355.911424,44.06 L356.371424,43.14 L354.991424,41.99 L354.991424,40.15 L356.371424,36.24 L356.831424,31.87 L355.451424,30.49 L354.071424,27.5 L354.071424,25.43 L353.151424,23.82 L349.241424,27.04 Z M357.981424,90.06 L352.001424,97.65 L349.931424,102.02 L348.781424,108.46 L349.701424,109.15 L354.071424,104.78 L353.381424,104.32 L355.911424,101.33 L356.371424,102.48 L357.291424,99.72 L359.361424,99.03 L358.901424,98.57 L357.751424,98.57 L358.441424,98.11 L358.901424,96.5 L360.511424,93.51 L359.361424,91.21 L357.981424,90.06 Z M362.351424,22.21 L360.741424,22.21 L360.741424,20.6 L361.661424,20.14 L362.351424,18.76 L362.351424,22.21 Z M364.191424,155.84 L365.111424,155.84 L365.111424,154.92 L364.191424,155.84 Z M354.991424,12.32 L354.991424,12.78 L355.451424,12.78 L355.911424,12.32 L354.991424,12.32 Z M394.781424,81.32 L395.701424,82.24 L395.701424,85.69 L396.621424,86.61 L396.621424,88.22 L395.701424,89.14 L395.701424,97.42 L394.781424,98.34 L394.781424,102.25 L394.321424,107.08 L392.711424,110.99 L391.791424,111.91 L391.791424,112.83 L389.951424,116.28 L387.421424,119.27 L386.961424,120.19 L386.501424,119.73 L385.811424,120.88 L382.591424,122.49 L380.061424,122.49 L378.221424,124.56 L378.221424,131.92 L379.141424,133.76 L379.141424,135.14 L378.681424,135.14 L378.681424,135.6 L380.061424,136.29 L380.751424,138.59 L381.211424,138.59 L381.671424,139.74 L384.891424,140.89 L389.491424,138.59 L392.711424,136.52 L392.711424,134.68 L395.241424,130.77 L395.701424,128.93 L397.081424,127.55 L398.921424,126.86 L400.071424,125.02 L401.221424,125.02 L400.301424,122.03 L400.991424,121.11 L401.911424,123.64 L402.601424,124.1 L402.601424,125.02 L403.981424,126.4 L403.521424,126.86 L403.521424,127.55 L402.601424,128.93 L402.601424,130.31 L401.911424,131.23 L402.601424,133.3 L400.991424,136.29 L399.151424,137.9 L398.691424,141.12 L396.161424,142.73 L396.161424,145.03 L394.321424,146.87 L392.251424,146.87 L391.791424,148.02 L389.491424,149.86 L387.421424,149.86 L385.351424,151.24 L382.591424,151.24 L381.211424,150.32 L380.061424,150.32 L379.601424,149.86 L378.681424,149.86 L377.301424,148.25 L375.921424,148.94 L372.471424,143.88 L371.321424,139.05 L369.941424,136.29 L369.941424,135.14 L369.251424,133.3 L369.941424,131.23 L370.631424,130.54 L369.941424,129.85 L370.401424,128.01 L369.481424,125.71 L370.401424,122.49 L370.401424,119.27 L370.861424,117.2 L371.551424,103.63 L372.471424,99.72 L373.391424,98.8 L373.391424,95.81 L374.771424,94.66 L377.301424,88.22 L380.751424,82.7 L381.671424,82.7 L382.361424,81.32 L383.511424,81.32 L385.581424,80.4 L387.881424,80.4 L391.101424,79.25 L392.711424,80.86 L394.781424,80.86 L394.781424,81.32 Z M385.581424,93.28 L382.361424,96.73 L379.141424,106.85 L379.141424,110.99 L380.061424,111.91 L382.361424,111.91 L383.511424,109.38 L385.121424,107.08 L386.041424,105.01 L387.421424,103.63 L387.421424,103.17 L387.881424,102.71 L387.881424,98.8 L388.341424,99.72 L388.341424,98.34 L387.421424,93.97 L385.581424,93.28 Z M400.071424,128.47 L399.151424,128.93 L400.531424,128.47 L400.071424,128.47 Z M415.941424,76.95 L423.301424,81.78 L425.141424,85 L425.141424,86.38 L426.061424,88.45 L426.061424,91.67 L425.141424,92.82 L425.141424,93.51 L422.841424,94.66 L425.601424,94.66 L425.601424,98.57 L424.681424,99.49 L424.681424,109.38 L423.301424,126.86 L423.301424,138.59 L424.911424,142.04 L429.051424,136.06 L429.051424,135.14 L429.971424,133.07 L432.041424,131.23 L432.041424,129.16 L432.961424,126.4 L434.801424,124.33 L434.801424,122.03 L436.411424,119.96 L436.411424,119.04 L436.871424,118.58 L437.331424,119.5 L438.941424,121.11 L440.321424,120.42 L440.321424,122.49 L440.781424,122.95 L440.781424,124.33 L440.321424,124.79 L440.781424,125.25 L440.321424,128.7 L439.401424,131.69 L439.861424,132.84 L437.791424,133.99 L437.791424,135.6 L438.711424,135.14 L437.331424,140.43 L436.411424,141.81 L435.491424,141.81 L433.881424,144.8 L434.341424,145.26 L434.341424,147.79 L432.271424,149.86 L431.581424,148.25 L431.121424,148.71 L431.121424,151.01 L427.671424,152.16 L427.211424,151.7 L424.221424,151.7 L423.531424,152.85 L422.841424,151.24 L421.461424,149.86 L420.771424,147.79 L420.311424,147.79 L419.851424,148.71 L418.931424,149.17 L417.781424,148.25 L417.781424,147.33 L415.941424,144.34 L414.791424,143.19 L413.411424,137.9 L413.871424,136.06 L412.951424,134.22 L412.951424,128.24 L412.031424,122.72 L414.101424,104.55 L415.481424,102.02 L415.481424,98.11 L415.941424,95.58 L415.941424,93.74 L416.861424,92.82 L417.321424,90.75 L416.171424,90.06 L414.561424,91.67 L414.561424,94.66 L413.181424,95.81 L413.871424,96.73 L413.411424,97.19 L413.411424,98.57 L412.721424,100.18 L410.651424,109.15 L410.191424,112.6 L409.501424,113.29 L409.501424,114.21 L409.041424,114.21 L409.041424,115.13 L408.581424,115.59 L408.581424,118.12 L408.121424,118.58 L408.121424,121.57 L406.741424,124.1 L405.821424,122.49 L404.671424,125.71 L402.371424,123.41 L401.681424,121.57 L400.301424,121.57 L400.301424,122.03 L400.761424,122.49 L400.301424,123.87 L399.381424,123.87 L399.381424,119.04 L400.761424,117.66 L400.301424,117.2 L400.761424,115.59 L401.911424,114.67 L401.221424,114.67 L401.221424,114.21 L402.371424,113.29 L401.911424,112.14 L402.831424,110.76 L402.831424,108.92 L403.751424,102.94 L403.751424,97.65 L405.361424,95.81 L404.211424,94.66 L405.131424,87.3 L406.281424,82.01 L407.661424,79.71 L407.201424,78.56 L408.581424,73.5 L409.501424,72.35 L410.651424,71.89 L411.111424,70.74 L411.571424,70.74 L411.571424,72.35 L413.181424,73.96 L414.331424,73.04 L415.941424,73.73 L415.941424,76.95 Z M414.561424,72.35 L412.491424,72.35 L412.491424,71.43 L413.411424,71.43 L414.561424,70.74 L414.561424,72.35 Z M437.561424,123.18 L438.251424,124.33 L439.401424,123.41 L438.711424,122.03 L437.561424,123.18 Z M431.121424,134.68 L431.121424,135.6 L432.501424,136.52 L432.501424,135.6 L431.581424,134.68 L431.121424,134.68 Z M412.951424,79.71 L412.491424,79.02 L412.491424,80.63 L413.871424,79.94 L413.871424,79.02 L412.951424,79.71 Z M411.571424,76.26 L412.031424,76.72 L412.031424,77.18 L412.951424,76.26 L412.261424,75.57 L411.571424,76.26 Z M432.041424,138.59 L431.581424,139.51 L432.041424,139.97 L432.501424,139.97 L432.501424,138.59 L432.041424,138.59 Z M420.771424,131.69 L420.771424,132.61 L421.231424,132.61 L422.151424,131.23 L420.771424,131.69 Z M429.511424,136.52 L429.971424,136.52 L429.971424,136.06 L429.511424,136.52 Z M429.971424,142.5 L429.971424,142.96 L430.431424,142.5 L429.971424,142.5 Z M524.271424,10.25 L526.111424,12.78 L527.261424,13.7 L529.101424,18.07 L530.021424,18.99 L530.021424,21.06 L532.091424,24.97 L532.091424,27.73 L532.551424,28.88 L532.551424,38.54 L532.091424,40.38 L532.091424,42.91 L530.941424,47.74 L529.561424,47.74 L527.721424,51.65 L526.111424,52.11 L522.431424,51.65 L520.821424,49.35 L520.821424,40.84 L520.361424,40.38 L520.821424,38.54 L520.361424,37.62 L520.361424,36.47 L519.901424,35.55 L520.361424,34.17 L520.361424,31.64 L519.901424,31.64 L519.901424,27.73 L519.441424,26.35 L519.441424,21.98 L518.521424,21.98 L518.521424,18.99 L518.981424,18.53 L518.981424,18.07 L518.061424,18.53 L518.061424,17.15 L517.371424,16.69 L516.451424,13.7 L515.531424,12.78 L515.071424,11.86 L513.001424,11.86 L511.621424,11.4 L511.161424,10.71 L508.631424,11.4 L507.251424,12.78 L506.331424,13.24 L503.801424,17.15 L502.191424,18.76 L499.891424,22.44 L499.891424,28.88 L500.581424,29.34 L499.891424,29.8 L500.581424,33.71 L499.661424,34.4 L500.581424,35.09 L499.661424,36.7 L500.581424,39 L501.041424,39.46 L501.041424,40.38 L502.421424,43.83 L502.881424,46.82 L504.261424,50.27 L505.411424,52.11 L505.871424,55.1 L507.021424,57.4 L505.411424,58.09 L506.331424,64.3 L506.791424,64.3 L506.791424,63.38 L507.711424,62.23 L507.711424,61.31 L506.791424,61.77 L506.791424,59.01 L507.711424,59.01 L507.711424,59.93 L509.781424,59.93 L509.781424,61.77 L510.241424,63.38 L509.781424,64.3 L510.701424,66.14 L511.161424,66.14 L511.161424,64.76 L511.851424,64.07 L513.231424,68.44 L514.611424,69.13 L514.611424,70.05 L515.071424,70.05 L515.991424,72.12 L515.991424,73.04 L516.451424,73.04 L516.911424,75.34 L518.521424,76.95 L518.521424,78.33 L519.441424,77.87 L520.361424,79.25 L519.901424,79.71 L521.741424,82.93 L521.741424,88.91 L525.191424,88.91 L528.181424,93.28 L528.181424,95.35 L529.101424,96.27 L530.021424,95.81 L530.021424,96.27 L531.171424,98.34 L531.631424,98.34 L532.551424,99.72 L531.631424,102.25 L532.551424,103.17 L533.931424,103.86 L535.541424,108 L536.461424,113.29 L536.921424,114.21 L535.541424,117.2 L535.541424,120.65 L534.851424,121.11 L534.851424,122.03 L534.391424,122.49 L534.391424,127.32 L533.011424,131.69 L532.551424,134.22 L531.171424,136.52 L530.481424,136.98 L530.021424,138.13 L529.561424,136.29 L528.641424,139.05 L528.181424,139.51 L528.181424,140.43 L527.261424,141.35 L526.571424,140.2 L524.731424,139.51 L526.111424,140.89 L524.271424,142.96 L522.661424,146.18 L519.901424,147.33 L518.521424,148.25 L518.061424,149.17 L515.991424,150.09 L514.151424,150.09 L512.541424,151.7 L505.871424,151.7 L503.801424,152.62 L501.501424,152.62 L500.811424,151.93 L499.891424,152.85 L491.841424,151.24 L486.321424,149.63 L483.561424,147.79 L483.561424,146.87 L482.181424,147.33 L480.571424,146.41 L478.731424,144.8 L476.431424,143.42 L475.281424,141.35 L473.671424,140.43 L473.671424,138.13 L470.911424,137.44 L468.381424,132.15 L467.461424,131.23 L467.461424,128.93 L467.921424,127.78 L467.921424,125.48 L468.841424,120.65 L469.301424,120.19 L469.301424,118.12 L470.451424,115.13 L470.911424,114.67 L471.371424,113.29 L472.291424,112.83 L472.751424,110.3 L474.361424,108.92 L474.361424,108 L476.201424,104.09 L476.201424,103.17 L477.121424,102.02 L478.731424,102.02 L479.191424,100.18 L480.571424,100.18 L479.881424,100.87 L481.031424,102.02 L482.411424,102.02 L483.561424,100.64 L483.561424,99.26 L484.481424,100.18 L484.481424,100.64 L484.941424,101.1 L484.941424,103.17 L484.251424,103.17 L484.941424,104.55 L483.561424,108.92 L483.561424,110.76 L481.951424,113.75 L481.951424,115.13 L479.651424,117.66 L479.651424,123.64 L478.041424,124.56 L478.731424,125.02 L476.891424,126.17 L477.581424,126.86 L477.581424,127.32 L478.041424,127.78 L478.041424,131.69 L479.191424,132.61 L479.881424,134.22 L483.101424,136.52 L484.021424,137.67 L485.401424,138.13 L485.401424,138.59 L486.551424,138.59 L487.471424,139.97 L489.771424,139.97 L492.761424,141.35 L498.051424,141.35 L502.881424,140.43 L507.711424,140.43 L508.631424,139.51 L510.241424,139.97 L512.311424,137.44 L513.691424,138.13 L514.151424,136.98 L516.911424,134.68 L518.061424,134.68 L520.361424,133.76 L520.361424,132.84 L522.891424,131.23 L524.271424,131.23 L525.191424,130.31 L525.191424,129.39 L526.111424,128.24 L527.261424,125.48 L528.181424,125.48 L528.641424,124.56 L529.561424,123.87 L528.641424,123.41 L528.641424,122.95 L528.181424,122.49 L528.181424,121.57 L528.641424,121.11 L529.561424,122.49 L530.021424,122.03 L530.021424,121.11 L531.171424,120.65 L531.171424,118.58 L531.631424,118.12 L530.941424,117.43 L529.561424,118.58 L529.101424,118.12 L529.101424,117.66 L527.721424,117.2 L527.721424,116.28 L526.801424,113.29 L526.111424,112.83 L526.111424,111.91 L525.191424,110.76 L525.191424,109.84 L525.651424,109.38 L525.651424,108.46 L523.351424,105.47 L523.351424,104.09 L519.671424,100.41 L518.981424,98.34 L515.991424,94.43 L514.611424,90.52 L514.611424,89.6 L513.001424,87.99 L512.081424,87.53 L509.781424,83.62 L509.321424,81.32 L508.631424,80.17 L508.631424,79.25 L507.941424,79.25 L506.791424,76.95 L505.411424,75.8 L504.951424,74.88 L504.261424,74.42 L504.261424,73.96 L502.191424,70.28 L501.501424,68.21 L498.511424,64.3 L497.591424,62.23 L496.901424,58.55 L495.061424,56.94 L494.601424,55.56 L493.911424,55.56 L492.301424,51.65 L490.691424,48.66 L490.691424,46.82 L489.311424,46.13 L489.311424,42.91 L488.391424,39 L488.391424,35.55 L487.931424,35.09 L487.931424,29.57 L489.311424,27.27 L488.621424,26.81 L490.231424,21.06 L492.301424,15.31 L493.681424,14.39 L493.681424,12.78 L494.601424,11.86 L495.061424,10.25 L496.901424,9.79 L498.281424,7.72 L502.421424,4.5 L503.111424,5.19 L508.631424,2.66 L509.321424,4.04 L511.161424,3.12 L513.921424,3.12 L514.611424,4.5 L514.611424,5.88 L515.071424,5.88 L515.991424,4.04 L516.911424,4.04 L518.061424,4.96 L518.061424,5.42 L520.591424,6.11 L524.271424,9.79 L524.271424,10.25 Z M518.521424,81.78 L518.981424,86.61 L519.441424,87.53 L519.901424,85.23 L520.821424,84.54 L520.821424,83.62 L520.361424,83.62 L520.361424,83.16 L518.981424,81.78 L518.521424,81.78 Z M471.831424,115.82 L471.831424,116.74 L472.751424,115.82 L474.131424,116.97 L474.821424,116.28 L473.671424,116.05 L473.211424,114.21 L471.831424,115.82 Z M472.291424,118.58 L471.831424,119.04 L472.751424,119.5 L472.751424,121.11 L473.211424,121.11 L473.671424,118.58 L472.291424,118.58 Z M532.551424,116.05 L532.551424,116.74 L534.391424,118.58 L534.391424,116.97 L532.551424,116.05 Z M528.871424,135.14 L529.561424,135.14 L530.251424,132.84 L529.561424,132.15 L528.871424,135.14 Z M481.031424,103.17 L481.951424,104.55 L481.951424,103.17 L481.031424,103.17 Z M524.271424,50.27 L524.271424,51.19 L524.731424,51.19 L524.731424,50.27 L524.271424,50.27 Z M532.091424,128.93 L531.631424,129.39 L533.011424,128.93 L532.091424,128.93 Z M532.091424,125.02 L532.551424,125.02 L532.091424,124.56 L532.091424,125.02 Z M528.641424,97.65 L529.101424,97.65 L528.641424,97.19 L528.641424,97.65 Z M505.411424,6.57 L505.411424,7.03 L505.871424,6.57 L505.411424,6.57 Z M529.101424,45.9 L529.561424,46.36 L529.561424,45.9 L529.101424,45.9 Z M560.151424,35.78 L560.611424,36.24 L560.151424,37.85 L559.231424,38.77 L559.231424,39.69 L559.691424,39.23 L560.611424,39.23 L559.691424,51.42 L558.541424,61.31 L559.231424,62 L560.151424,62 L562.451424,63.15 L564.061424,62.23 L566.591424,64.07 L567.971424,63.15 L569.581424,63.15 L570.271424,64.53 L572.341424,64.99 L573.261424,63.61 L575.331424,63.61 L576.251424,64.53 L575.791424,65.91 L575.791424,71.43 L565.441424,71.43 L564.981424,71.89 L560.151424,71.89 L558.311424,72.81 L553.941424,80.17 L551.641424,84.77 L550.491424,91.21 L550.491424,93.28 L550.031424,95.58 L550.031424,110.3 L548.421424,111.68 L549.341424,111.68 L549.341424,118.12 L548.881424,119.04 L548.881424,129.85 L548.421424,130.31 L549.341424,132.15 L549.341424,136.52 L550.491424,137.44 L552.331424,137.44 L556.931424,134.22 L558.311424,132.15 L559.231424,128.7 L559.231424,127.32 L560.611424,125.94 L561.531424,124.33 L562.221424,123.87 L561.301424,123.18 L562.681424,122.03 L562.681424,119.5 L563.601424,117.66 L564.291424,115.13 L565.441424,115.13 L565.441424,116.05 L567.051424,116.05 L568.201424,113.75 L569.351424,115.13 L570.271424,115.13 L570.271424,118.12 L572.341424,117.43 L570.271424,120.19 L570.271424,124.33 L569.351424,130.31 L567.971424,133.53 L565.441424,136.06 L565.441424,138.59 L563.371424,144.57 L562.681424,143.88 L561.531424,144.34 L561.531424,145.26 L559.921424,148.94 L557.161424,150.09 L556.011424,151.47 L553.941424,152.16 L551.871424,152.16 L550.951424,152.62 L549.341424,152.62 L548.421424,151.7 L546.121424,151.7 L540.371424,145.95 L538.761424,140.43 L538.071424,140.43 L537.381424,136.06 L535.541424,128.93 L536.691424,117.43 L538.761424,111.68 L539.911424,109.61 L539.221424,107.31 L539.221424,105.01 L540.141424,103.86 L540.141424,99.03 L541.751424,89.83 L543.131424,89.14 L543.131424,86.84 L542.441424,86.84 L543.131424,84.08 L543.131424,76.26 L541.751424,74.65 L539.681424,73.73 L538.301424,72.35 L537.841424,72.35 L534.851424,69.36 L535.771424,68.9 L537.611424,67.29 L536.691424,66.37 L537.381424,65.91 L538.301424,66.37 L538.991424,64.99 L543.821424,60.85 L548.881424,53.03 L550.261424,46.36 L552.331424,44.06 L551.641424,43.37 L554.401424,36.24 L555.321424,36.24 L555.321424,33.94 L556.241424,33.94 L556.241424,34.86 L557.161424,35.32 L559.001424,33.71 L560.151424,34.86 L560.151424,35.78 Z M580.161424,76.95 L587.521424,81.78 L589.361424,85 L589.361424,86.38 L590.281424,88.45 L590.281424,91.67 L589.361424,92.82 L589.361424,93.51 L587.061424,94.66 L589.821424,94.66 L589.821424,98.57 L588.901424,99.49 L588.901424,109.38 L587.521424,126.86 L587.521424,138.59 L589.131424,142.04 L593.271424,136.06 L593.271424,135.14 L594.191424,133.07 L596.261424,131.23 L596.261424,129.16 L597.181424,126.4 L599.021424,124.33 L599.021424,122.03 L600.631424,119.96 L600.631424,119.04 L601.091424,118.58 L601.551424,119.5 L603.161424,121.11 L604.541424,120.42 L604.541424,122.49 L605.001424,122.95 L605.001424,124.33 L604.541424,124.79 L605.001424,125.25 L604.541424,128.7 L603.621424,131.69 L604.081424,132.84 L602.011424,133.99 L602.011424,135.6 L602.931424,135.14 L601.551424,140.43 L600.631424,141.81 L599.711424,141.81 L598.101424,144.8 L598.561424,145.26 L598.561424,147.79 L596.491424,149.86 L595.801424,148.25 L595.341424,148.71 L595.341424,151.01 L591.891424,152.16 L591.431424,151.7 L588.441424,151.7 L587.751424,152.85 L587.061424,151.24 L585.681424,149.86 L584.991424,147.79 L584.531424,147.79 L584.071424,148.71 L583.151424,149.17 L582.001424,148.25 L582.001424,147.33 L580.161424,144.34 L579.011424,143.19 L577.631424,137.9 L578.091424,136.06 L577.171424,134.22 L577.171424,128.24 L576.251424,122.72 L578.321424,104.55 L579.701424,102.02 L579.701424,98.11 L580.161424,95.58 L580.161424,93.74 L581.081424,92.82 L581.541424,90.75 L580.391424,90.06 L578.781424,91.67 L578.781424,94.66 L577.401424,95.81 L578.091424,96.73 L577.631424,97.19 L577.631424,98.57 L576.941424,100.18 L574.871424,109.15 L574.411424,112.6 L573.721424,113.29 L573.721424,114.21 L573.261424,114.21 L573.261424,115.13 L572.801424,115.59 L572.801424,118.12 L572.341424,118.58 L572.341424,121.57 L570.961424,124.1 L570.041424,122.49 L568.891424,125.71 L566.591424,123.41 L565.901424,121.57 L564.521424,121.57 L564.521424,122.03 L564.981424,122.49 L564.521424,123.87 L563.601424,123.87 L563.601424,119.04 L564.981424,117.66 L564.521424,117.2 L564.981424,115.59 L566.131424,114.67 L565.441424,114.67 L565.441424,114.21 L566.591424,113.29 L566.131424,112.14 L567.051424,110.76 L567.051424,108.92 L567.971424,102.94 L567.971424,97.65 L569.581424,95.81 L568.431424,94.66 L569.351424,87.3 L570.501424,82.01 L571.881424,79.71 L571.421424,78.56 L572.801424,73.5 L573.721424,72.35 L574.871424,71.89 L575.331424,70.74 L575.791424,70.74 L575.791424,72.35 L577.401424,73.96 L578.551424,73.04 L580.161424,73.73 L580.161424,76.95 Z M578.781424,72.35 L576.711424,72.35 L576.711424,71.43 L577.631424,71.43 L578.781424,70.74 L578.781424,72.35 Z M601.781424,123.18 L602.471424,124.33 L603.621424,123.41 L602.931424,122.03 L601.781424,123.18 Z M595.341424,134.68 L595.341424,135.6 L596.721424,136.52 L596.721424,135.6 L595.801424,134.68 L595.341424,134.68 Z M577.171424,79.71 L576.711424,79.02 L576.711424,80.63 L578.091424,79.94 L578.091424,79.02 L577.171424,79.71 Z M575.791424,76.26 L576.251424,76.72 L576.251424,77.18 L577.171424,76.26 L576.481424,75.57 L575.791424,76.26 Z M596.261424,138.59 L595.801424,139.51 L596.261424,139.97 L596.721424,139.97 L596.721424,138.59 L596.261424,138.59 Z M584.991424,131.69 L584.991424,132.61 L585.451424,132.61 L586.371424,131.23 L584.991424,131.69 Z M593.731424,136.52 L594.191424,136.52 L594.191424,136.06 L593.731424,136.52 Z M594.191424,142.5 L594.191424,142.96 L594.651424,142.5 L594.191424,142.5 Z M620.411424,81.32 L621.331424,82.24 L621.331424,85.69 L622.251424,86.61 L622.251424,88.22 L621.331424,89.14 L621.331424,97.42 L620.411424,98.34 L620.411424,102.25 L619.951424,107.08 L618.341424,110.99 L617.421424,111.91 L617.421424,112.83 L615.581424,116.28 L613.051424,119.27 L612.591424,120.19 L612.131424,119.73 L611.441424,120.88 L608.221424,122.49 L605.691424,122.49 L603.851424,124.56 L603.851424,131.92 L604.771424,133.76 L604.771424,135.14 L604.311424,135.14 L604.311424,135.6 L605.691424,136.29 L606.381424,138.59 L606.841424,138.59 L607.301424,139.74 L610.521424,140.89 L615.121424,138.59 L618.341424,136.52 L618.341424,134.68 L620.871424,130.77 L621.331424,128.93 L622.711424,127.55 L624.551424,126.86 L625.701424,125.02 L626.851424,125.02 L625.931424,122.03 L626.621424,121.11 L627.541424,123.64 L628.231424,124.1 L628.231424,125.02 L629.611424,126.4 L629.151424,126.86 L629.151424,127.55 L628.231424,128.93 L628.231424,130.31 L627.541424,131.23 L628.231424,133.3 L626.621424,136.29 L624.781424,137.9 L624.321424,141.12 L621.791424,142.73 L621.791424,145.03 L619.951424,146.87 L617.881424,146.87 L617.421424,148.02 L615.121424,149.86 L613.051424,149.86 L610.981424,151.24 L608.221424,151.24 L606.841424,150.32 L605.691424,150.32 L605.231424,149.86 L604.311424,149.86 L602.931424,148.25 L601.551424,148.94 L598.101424,143.88 L596.951424,139.05 L595.571424,136.29 L595.571424,135.14 L594.881424,133.3 L595.571424,131.23 L596.261424,130.54 L595.571424,129.85 L596.031424,128.01 L595.111424,125.71 L596.031424,122.49 L596.031424,119.27 L596.491424,117.2 L597.181424,103.63 L598.101424,99.72 L599.021424,98.8 L599.021424,95.81 L600.401424,94.66 L602.931424,88.22 L606.381424,82.7 L607.301424,82.7 L607.991424,81.32 L609.141424,81.32 L611.211424,80.4 L613.511424,80.4 L616.731424,79.25 L618.341424,80.86 L620.411424,80.86 L620.411424,81.32 Z M611.211424,93.28 L607.991424,96.73 L604.771424,106.85 L604.771424,110.99 L605.691424,111.91 L607.991424,111.91 L609.141424,109.38 L610.751424,107.08 L611.671424,105.01 L613.051424,103.63 L613.051424,103.17 L613.511424,102.71 L613.511424,98.8 L613.971424,99.72 L613.971424,98.34 L613.051424,93.97 L611.211424,93.28 Z M625.701424,128.47 L624.781424,128.93 L626.161424,128.47 L625.701424,128.47 Z M649.621424,81.32 L650.541424,82.24 L650.541424,85.69 L651.461424,86.61 L651.461424,88.22 L650.541424,89.14 L650.541424,97.42 L649.621424,98.34 L649.621424,102.25 L649.161424,107.08 L647.551424,110.99 L646.631424,111.91 L646.631424,112.83 L644.791424,116.28 L642.261424,119.27 L641.801424,120.19 L641.341424,119.73 L640.651424,120.88 L637.431424,122.49 L634.901424,122.49 L633.061424,124.56 L633.061424,131.92 L633.981424,133.76 L633.981424,135.14 L633.521424,135.14 L633.521424,135.6 L634.901424,136.29 L635.591424,138.59 L636.051424,138.59 L636.511424,139.74 L639.731424,140.89 L644.331424,138.59 L647.551424,136.52 L647.551424,134.68 L650.081424,130.77 L650.541424,128.93 L651.921424,127.55 L653.761424,126.86 L654.911424,125.02 L656.061424,125.02 L655.141424,122.03 L655.831424,121.11 L656.751424,123.64 L657.441424,124.1 L657.441424,125.02 L658.821424,126.4 L658.361424,126.86 L658.361424,127.55 L657.441424,128.93 L657.441424,130.31 L656.751424,131.23 L657.441424,133.3 L655.831424,136.29 L653.991424,137.9 L653.531424,141.12 L651.001424,142.73 L651.001424,145.03 L649.161424,146.87 L647.091424,146.87 L646.631424,148.02 L644.331424,149.86 L642.261424,149.86 L640.191424,151.24 L637.431424,151.24 L636.051424,150.32 L634.901424,150.32 L634.441424,149.86 L633.521424,149.86 L632.141424,148.25 L630.761424,148.94 L627.311424,143.88 L626.161424,139.05 L624.781424,136.29 L624.781424,135.14 L624.091424,133.3 L624.781424,131.23 L625.471424,130.54 L624.781424,129.85 L625.241424,128.01 L624.321424,125.71 L625.241424,122.49 L625.241424,119.27 L625.701424,117.2 L626.391424,103.63 L627.311424,99.72 L628.231424,98.8 L628.231424,95.81 L629.611424,94.66 L632.141424,88.22 L635.591424,82.7 L636.511424,82.7 L637.201424,81.32 L638.351424,81.32 L640.421424,80.4 L642.721424,80.4 L645.941424,79.25 L647.551424,80.86 L649.621424,80.86 L649.621424,81.32 Z M640.421424,93.28 L637.201424,96.73 L633.981424,106.85 L633.981424,110.99 L634.901424,111.91 L637.201424,111.91 L638.351424,109.38 L639.961424,107.08 L640.881424,105.01 L642.261424,103.63 L642.261424,103.17 L642.721424,102.71 L642.721424,98.8 L643.181424,99.72 L643.181424,98.34 L642.261424,93.97 L640.421424,93.28 Z M654.911424,128.47 L653.991424,128.93 L655.371424,128.47 L654.911424,128.47 Z M677.451424,35.78 L677.911424,36.24 L677.451424,37.85 L676.531424,38.77 L676.531424,39.69 L676.991424,39.23 L677.911424,39.23 L676.991424,51.42 L675.841424,61.31 L676.531424,62 L677.451424,62 L679.751424,63.15 L681.361424,62.23 L683.891424,64.07 L685.271424,63.15 L686.881424,63.15 L687.571424,64.53 L689.641424,64.99 L690.561424,63.61 L692.631424,63.61 L693.551424,64.53 L693.091424,65.91 L693.091424,71.43 L682.741424,71.43 L682.281424,71.89 L677.451424,71.89 L675.611424,72.81 L671.241424,80.17 L668.941424,84.77 L667.791424,91.21 L667.791424,93.28 L667.331424,95.58 L667.331424,110.3 L665.721424,111.68 L666.641424,111.68 L666.641424,118.12 L666.181424,119.04 L666.181424,129.85 L665.721424,130.31 L666.641424,132.15 L666.641424,136.52 L667.791424,137.44 L669.631424,137.44 L674.231424,134.22 L675.611424,132.15 L676.531424,128.7 L676.531424,127.32 L677.911424,125.94 L678.831424,124.33 L679.521424,123.87 L678.601424,123.18 L679.981424,122.03 L679.981424,119.5 L680.901424,117.66 L681.591424,115.13 L682.741424,115.13 L682.741424,116.05 L684.351424,116.05 L685.501424,113.75 L686.651424,115.13 L687.571424,115.13 L687.571424,118.12 L689.641424,117.43 L687.571424,120.19 L687.571424,124.33 L686.651424,130.31 L685.271424,133.53 L682.741424,136.06 L682.741424,138.59 L680.671424,144.57 L679.981424,143.88 L678.831424,144.34 L678.831424,145.26 L677.221424,148.94 L674.461424,150.09 L673.311424,151.47 L671.241424,152.16 L669.171424,152.16 L668.251424,152.62 L666.641424,152.62 L665.721424,151.7 L663.421424,151.7 L657.671424,145.95 L656.061424,140.43 L655.371424,140.43 L654.681424,136.06 L652.841424,128.93 L653.991424,117.43 L656.061424,111.68 L657.211424,109.61 L656.521424,107.31 L656.521424,105.01 L657.441424,103.86 L657.441424,99.03 L659.051424,89.83 L660.431424,89.14 L660.431424,86.84 L659.741424,86.84 L660.431424,84.08 L660.431424,76.26 L659.051424,74.65 L656.981424,73.73 L655.601424,72.35 L655.141424,72.35 L652.151424,69.36 L653.071424,68.9 L654.911424,67.29 L653.991424,66.37 L654.681424,65.91 L655.601424,66.37 L656.291424,64.99 L661.121424,60.85 L666.181424,53.03 L667.561424,46.36 L669.631424,44.06 L668.941424,43.37 L671.701424,36.24 L672.621424,36.24 L672.621424,33.94 L673.541424,33.94 L673.541424,34.86 L674.461424,35.32 L676.301424,33.71 L677.451424,34.86 L677.451424,35.78 Z"></path>
                        </g>
                        <g id="Heroes-and-Villains" transform="translate(221.000000, 167.000000)" fill="#FFFFFF">
                            <path d="M54.3384778,3.30664062 L55.1246106,3.30664062 C55.9481824,3.71842654 56.3599622,4.39224792 56.3599622,5.328125 C50.9693102,15.5853377 46.7017748,25.0188372 43.5572278,33.6289062 C42.8833963,35.6129656 42.5464856,36.8670221 42.5464856,37.3911133 L42.8272473,37.3911133 C44.2123454,36.5301064 45.1294912,36.0996094 45.5787122,36.0996094 L45.8033215,36.6049805 L45.8033215,37.1103516 C45.8033215,38.4205795 44.3059407,39.6746359 41.311134,40.8725586 C38.6532431,49.7821083 36.6504962,59.4776494 35.3028332,69.9594727 C35.3028332,71.2322655 35.1343779,72.8981017 34.7974622,74.9570312 C35.0220727,80.3102481 35.2841143,82.9868164 35.583595,82.9868164 C35.0595038,83.9975636 34.7974622,84.7462541 34.7974622,85.2329102 L34.2920911,85.2329102 C33.4685192,84.8585593 32.9818705,82.181991 32.8321301,77.203125 L32.8321301,74.4516602 C32.8321301,66.1785068 34.4979663,55.7342753 37.8296887,43.1186523 L37.8296887,42.894043 L37.3243176,42.894043 C26.9547996,47.3862529 19.9358269,49.6323242 16.2671887,49.6323242 C15.5933572,51.8409941 14.5826251,57.7743658 13.2349622,67.4326172 C8.96736269,86.9737305 5.39236589,96.7441406 2.5098645,96.7441406 C1.64885759,96.7441406 1.14349155,96.4072299 0.993751219,95.7333984 C0.993751219,94.5354758 1.5739863,93.7867854 2.73447387,93.4873047 C6.25337168,86.4869442 8.92993996,77.1283138 10.764259,65.4111328 C13.5718903,45.4582336 16.6602383,30.6903148 20.0293957,21.1069336 C23.2113778,13.170696 24.802345,7.98601477 24.802345,5.55273438 L25.3077161,5.328125 L25.5323254,5.328125 C27.0297288,5.328125 27.7784192,5.90836008 27.7784192,7.06884766 L27.7784192,7.57421875 C20.4411429,28.2383846 16.7725598,41.0971427 16.7725598,46.1508789 L16.7725598,46.65625 C20.927854,46.65625 28.2650202,44.2230061 38.7842786,39.3564453 C43.3139236,25.5428997 48.4986048,13.5264183 54.3384778,3.30664062 L54.3384778,3.30664062 Z M54.3384778,40.5917969 L55.2369153,40.5917969 C56.7717537,40.5917969 57.8199203,41.1907492 58.3814465,42.3886719 C58.3814465,43.9983804 55.76103,45.2711542 50.5201184,46.2070312 C49.9211571,46.0572909 49.3970738,45.9824219 48.9478528,45.9824219 C48.5360669,45.9824219 48.1617217,46.3567671 47.8248059,47.1054688 C48.4986374,47.7044301 48.8729826,48.0039062 48.9478528,48.0039062 L50.5201184,48.0039062 C51.5308656,48.0039062 55.1994488,47.1054777 61.5259778,45.3085938 C61.8254584,45.4583341 62.0500656,45.5332031 62.1998059,45.5332031 L62.1998059,46.4316406 C60.2157465,48.0787843 56.5471634,49.4264271 51.1939465,50.4746094 L50.295509,50.4746094 C47.7124883,50.4746094 45.9156313,49.2767047 44.904884,46.8808594 C44.904884,44.7096246 48.0493838,42.6132914 54.3384778,40.5917969 L54.3384778,40.5917969 Z M69.72422,40.0864258 C70.3231813,40.0864258 70.8472646,40.460771 71.2964856,41.2094727 L71.2964856,41.8833008 C71.2964856,42.0330411 69.9488428,43.0063387 67.2535168,44.8032227 C64.3335804,48.09751 62.2372472,49.7446289 60.9644543,49.7446289 C60.365493,49.7446289 59.8414097,48.8462004 59.3921887,47.0493164 L59.6167981,45.9262695 C59.4670578,45.1026977 59.3921887,44.4288763 59.3921887,43.9047852 C59.6916694,43.2309537 59.9911456,42.8566084 60.2906262,42.7817383 L60.9644543,42.7817383 C62.162377,42.7817383 62.7613293,42.8191728 62.7613293,42.894043 L62.7613293,43.5678711 L62.9859387,43.5678711 C66.6920119,41.2468959 68.9380832,40.0864258 69.72422,40.0864258 L69.72422,40.0864258 Z M72.0264661,45.3085938 L71.8018567,44.859375 C71.9141619,44.2604137 72.0639,43.9609375 72.2510754,43.9609375 L72.0264661,43.5117188 C72.0264661,43.2496732 72.9248946,42.950197 74.7217786,42.6132812 C75.1335645,41.8645796 75.8073859,41.4902344 76.7432629,41.4902344 C78.5401469,42.9876377 80.1123968,43.7363281 81.4600598,43.7363281 L80.3370129,46.65625 L78.7647473,45.7578125 C78.7647473,47.8541771 77.4919736,49.5012961 74.9463879,50.6992188 C73.9730758,50.3997381 73.2243853,50.0253929 72.7002942,49.5761719 C72.7002942,49.9879578 71.8018657,50.7366482 70.0049817,51.8222656 C70.2670273,49.6884659 70.9408487,47.5172636 72.0264661,45.3085938 L72.0264661,45.3085938 Z M88.8721692,40.5917969 L89.7706067,40.5917969 C91.3054451,40.5917969 92.3536117,41.1907492 92.9151379,42.3886719 C92.9151379,43.9983804 90.2947214,45.2711542 85.0538098,46.2070312 C84.4548485,46.0572909 83.9307652,45.9824219 83.4815442,45.9824219 C83.0697583,45.9824219 82.6954131,46.3567671 82.3584973,47.1054688 C83.0323288,47.7044301 83.406674,48.0039062 83.4815442,48.0039062 L85.0538098,48.0039062 C86.0645571,48.0039062 89.7331402,47.1054777 96.0596692,45.3085938 C96.3591499,45.4583341 96.583757,45.5332031 96.7334973,45.5332031 L96.7334973,46.4316406 C94.7494379,48.0787843 91.0808548,49.4264271 85.7276379,50.4746094 L84.8292004,50.4746094 C82.2461797,50.4746094 80.4493227,49.2767047 79.4385754,46.8808594 C79.4385754,44.7096246 82.5830752,42.6132914 88.8721692,40.5917969 L88.8721692,40.5917969 Z M102.741798,39.5249023 C103.64024,40.1238637 104.089454,40.7976851 104.089454,41.5463867 C103.789974,42.4448287 103.191021,42.894043 102.292579,42.894043 C100.870046,42.444822 99.8967486,42.2202148 99.3726575,42.2202148 C98.0249945,42.6694358 97.3511731,43.0437811 97.3511731,43.3432617 C99.5972781,45.7765421 100.720314,47.0493158 100.720314,47.1616211 L100.720314,47.3862305 C100.720314,48.546718 99.6721471,49.4451466 97.5757825,50.081543 C95.9286388,49.7820623 95.1050793,49.4825861 95.1050793,49.1831055 L95.1050793,48.9584961 L97.3511731,47.3862305 L97.3511731,47.1616211 C95.5542891,45.1775617 94.6558606,43.5304427 94.6558606,42.2202148 C94.6558606,40.4233309 97.3511461,39.5249023 102.741798,39.5249023 L102.741798,39.5249023 Z M129.245704,47.1616211 L127.392677,47.1616211 C126.60654,47.1616211 125.502222,46.5439515 124.079689,45.3085938 L123.742775,45.3085938 C121.983326,47.1429128 120.579531,48.0600586 119.531349,48.0600586 L118.913673,48.0600586 L116.499122,45.9262695 C116.499122,43.1186383 117.809331,41.0035878 120.429786,39.5810547 L121.665138,39.5810547 C125.483516,39.8431003 127.392677,40.6479425 127.392677,41.9956055 L127.392677,43.230957 L127.729591,43.230957 C128.066507,43.230957 128.571873,44.5411653 129.245704,47.1616211 L129.245704,47.1616211 Z M132.72715,40.1425781 C134.636339,40.1425781 135.983982,41.2656138 136.770118,43.5117188 C136.770118,43.8111994 136.919856,44.5598898 137.219337,45.7578125 C137.069597,46.3567738 136.695252,46.65625 136.09629,46.65625 C135.684504,46.65625 134.935814,45.5332144 133.850197,43.2871094 L133.400978,43.2871094 C132.277925,43.2871094 131.005152,44.5598831 129.582618,47.1054688 C129.133397,47.2552091 128.90879,47.4049472 128.90879,47.5546875 C127.411387,47.1803367 126.662697,46.5065153 126.662697,45.5332031 C129.919549,42.0891755 131.941013,40.2923185 132.72715,40.1425781 L132.72715,40.1425781 Z M153.33506,27.4521484 L153.559669,27.4521484 C154.832462,27.4521484 155.730891,28.425446 156.254982,30.3720703 C155.768326,33.6289225 153.372516,38.0461961 149.067482,43.6240234 C149.067482,44.9716864 150.190517,45.8701149 152.436622,46.3193359 L152.436622,46.7685547 C152.137142,47.6669967 151.538189,48.1162109 150.639747,48.1162109 C149.853611,48.1162109 148.655706,47.2926515 147.045997,45.6455078 L146.821388,45.6455078 C142.928139,49.0895354 140.083116,50.8115234 138.286232,50.8115234 C137.350355,50.8115234 136.377057,49.987964 135.36631,48.3408203 L135.36631,47.8916016 C135.36631,45.7578018 138.435941,43.2871234 144.575294,40.4794922 C145.660912,40.4794922 146.334733,39.1318494 146.596779,36.4365234 C149.40441,30.4469102 151.650481,27.4521484 153.33506,27.4521484 L153.33506,27.4521484 Z M148.618263,39.3564453 L148.618263,39.8056641 L148.842872,39.8056641 C151.201283,36.9980328 152.698663,34.0032711 153.33506,30.8212891 L152.885841,30.8212891 C151.238697,32.2063871 149.816186,35.0514108 148.618263,39.3564453 L148.618263,39.3564453 Z M138.286232,48.1162109 L138.286232,48.3408203 L138.510841,48.3408203 C140.157985,48.0787747 142.553794,46.3567867 145.698341,43.1748047 L145.698341,42.7255859 L145.249122,42.7255859 C140.756912,44.8219506 138.435972,46.6188076 138.286232,48.1162109 L138.286232,48.1162109 Z M242.785743,0.330566406 C243.946231,0.592611987 244.526466,0.892088159 244.526466,1.22900391 L244.526466,1.67822266 C243.740329,3.13819089 242.111928,3.86816406 239.641212,3.86816406 C232.154196,7.68654253 223.750145,13.8070868 214.42881,22.2299805 C205.968481,30.6528741 198.743618,39.0569242 192.754005,47.4423828 C182.272182,61.7800196 176.600852,70.9889119 175.739845,75.0693359 C175.066013,75.6682973 174.410909,75.9677734 173.774513,75.9677734 C173.138117,75.780598 172.688902,75.4249701 172.426857,74.9008789 C173.961695,69.996883 175.36549,64.1758149 176.638282,57.4375 L176.357521,56.9321289 L177.480568,52.1030273 L177.312111,51.6538086 L179.726661,38.7949219 C181.224065,31.4576456 182.777597,25.3558186 184.387306,20.4892578 C186.745716,12.5904553 188.355401,6.54478008 189.216407,2.35205078 C189.478453,2.20231045 189.777929,2.12744141 190.114845,2.12744141 L190.339454,2.12744141 C191.200461,2.12744141 191.724545,2.48306936 191.91172,3.19433594 C185.734931,23.4092808 182.646583,34.770658 182.646583,37.2788086 C181.972752,39.5623487 181.429951,41.097164 181.018165,41.8833008 L181.298927,42.3325195 C179.951264,48.846224 178.67849,56.5203009 177.480568,65.3549805 L177.761329,65.3549805 C183.638637,56.3705605 189.309967,48.3221384 194.775489,41.2094727 C195.037535,41.2094727 195.917246,40.1238715 197.41465,37.9526367 C197.826436,37.9526367 198.406671,37.2226635 199.155372,35.7626953 C199.492288,35.7626953 200.09124,35.0140049 200.952247,33.5166016 C201.251728,33.5166016 202.580653,32.037938 204.939064,29.0805664 C205.463155,29.0805664 205.987238,28.406745 206.511329,27.059082 C217.891595,16.0906027 225.771561,9.53956145 230.151466,7.40576172 C237.413872,2.68894126 241.625256,0.330566406 242.785743,0.330566406 L242.785743,0.330566406 Z M202.468361,37.2788086 C203.366803,37.6157243 203.816017,38.2146767 203.816017,39.0756836 C203.591406,39.8243853 203.067323,40.1987305 202.243751,40.1987305 L202.019142,40.1987305 C201.682226,40.1987305 201.307881,39.5997781 200.896095,38.4018555 C201.120705,37.6531538 201.644789,37.2788086 202.468361,37.2788086 L202.468361,37.2788086 Z M201.794532,42.6694336 C202.692974,43.2683949 203.142189,43.8673473 203.142189,44.4663086 C202.094006,47.1241995 201.345316,48.6215803 200.896095,48.9584961 L200.222267,48.9584961 C199.773046,48.8087558 199.548439,48.3595415 199.548439,47.6108398 L199.548439,47.1616211 C199.810484,44.1668145 200.409437,42.6694336 201.345314,42.6694336 L201.794532,42.6694336 Z M204.433693,45.9262695 L204.826759,45.9262695 C207.110299,43.5678593 209.805585,38.8136751 212.912697,31.6635742 C212.912697,31.0646129 213.193455,30.5779641 213.754982,30.2036133 C215.402125,30.2036133 216.225685,30.971021 216.225685,32.5058594 C215.140067,33.3294312 214.16677,36.1557376 213.305763,40.9848633 C213.305763,41.4340843 213.249611,41.770995 213.137306,41.9956055 C213.137306,42.1453458 213.193458,42.2202148 213.305763,42.2202148 L213.137306,43.6240234 L213.137306,44.0732422 C213.137306,44.7845088 213.474217,45.8139581 214.148048,47.1616211 C214.484964,47.0867509 214.765723,47.0493164 214.990333,47.0493164 C215.62673,47.0493164 215.944923,47.3300753 215.944923,47.8916016 C215.907488,48.7151734 215.795184,49.2954085 215.608009,49.6323242 L214.372657,49.6323242 C212.388598,49.6323242 211.07839,47.4985565 210.441993,43.230957 C210.591734,42.9689115 210.666603,42.7630216 210.666603,42.6132812 L210.217384,42.6132812 C210.217384,42.9127619 209.524845,44.0170803 208.139747,45.9262695 C207.091565,47.8728938 205.987247,48.8461914 204.826759,48.8461914 L204.433693,45.9262695 Z M215.214943,45.9262695 L215.608009,45.9262695 C217.891549,43.5678593 220.586835,38.8136751 223.693947,31.6635742 C223.693947,31.0646129 223.974705,30.5779641 224.536232,30.2036133 C226.183375,30.2036133 227.006935,30.971021 227.006935,32.5058594 C225.921317,33.3294312 224.94802,36.1557376 224.087013,40.9848633 C224.087013,41.4340843 224.030861,41.770995 223.918556,41.9956055 C223.918556,42.1453458 223.974708,42.2202148 224.087013,42.2202148 L223.918556,43.6240234 L223.918556,44.0732422 C223.918556,44.7845088 224.255467,45.8139581 224.929298,47.1616211 C225.266214,47.0867509 225.546973,47.0493164 225.771583,47.0493164 C226.40798,47.0493164 226.726173,47.3300753 226.726173,47.8916016 C226.688738,48.7151734 226.576434,49.2954085 226.389259,49.6323242 L225.153907,49.6323242 C223.169848,49.6323242 221.85964,47.4985565 221.223243,43.230957 C221.372984,42.9689115 221.447853,42.7630216 221.447853,42.6132812 L220.998634,42.6132812 C220.998634,42.9127619 220.306095,44.0170803 218.920997,45.9262695 C217.872815,47.8728938 216.768497,48.8461914 215.608009,48.8461914 L215.214943,45.9262695 Z M239.191993,47.1616211 L237.338966,47.1616211 C236.552829,47.1616211 235.448511,46.5439515 234.025978,45.3085938 L233.689064,45.3085938 C231.929615,47.1429128 230.52582,48.0600586 229.477638,48.0600586 L228.859962,48.0600586 L226.445411,45.9262695 C226.445411,43.1186383 227.75562,41.0035878 230.376075,39.5810547 L231.611427,39.5810547 C235.429805,39.8431003 237.338966,40.6479425 237.338966,41.9956055 L237.338966,43.230957 L237.67588,43.230957 C238.012796,43.230957 238.518162,44.5411653 239.191993,47.1616211 L239.191993,47.1616211 Z M241.381935,37.2788086 C242.280377,37.6157243 242.729591,38.2146767 242.729591,39.0756836 C242.504981,39.8243853 241.980897,40.1987305 241.157325,40.1987305 L240.932716,40.1987305 C240.5958,40.1987305 240.221455,39.5997781 239.809669,38.4018555 C240.03428,37.6531538 240.558363,37.2788086 241.381935,37.2788086 L241.381935,37.2788086 Z M240.708107,42.6694336 C241.606549,43.2683949 242.055763,43.8673473 242.055763,44.4663086 C241.007581,47.1241995 240.25889,48.6215803 239.809669,48.9584961 L239.135841,48.9584961 C238.68662,48.8087558 238.462013,48.3595415 238.462013,47.6108398 L238.462013,47.1616211 C238.724059,44.1668145 239.323011,42.6694336 240.258888,42.6694336 L240.708107,42.6694336 Z M247.72715,40.1425781 C249.636339,40.1425781 250.983982,41.2656138 251.770118,43.5117188 C251.770118,43.8111994 251.919856,44.5598898 252.219337,45.7578125 C252.069597,46.3567738 251.695252,46.65625 251.09629,46.65625 C250.684504,46.65625 249.935814,45.5332144 248.850197,43.2871094 L248.400978,43.2871094 C247.277925,43.2871094 246.005152,44.5598831 244.582618,47.1054688 C244.133397,47.2552091 243.90879,47.4049472 243.90879,47.5546875 C242.411387,47.1803367 241.662697,46.5065153 241.662697,45.5332031 C244.919549,42.0891755 246.941013,40.2923185 247.72715,40.1425781 L247.72715,40.1425781 Z M259.912208,39.5249023 C260.81065,40.1238637 261.259864,40.7976851 261.259864,41.5463867 C260.960384,42.4448287 260.361431,42.894043 259.462989,42.894043 C258.040456,42.444822 257.067159,42.2202148 256.543068,42.2202148 C255.195405,42.6694358 254.521583,43.0437811 254.521583,43.3432617 C256.767688,45.7765421 257.890724,47.0493158 257.890724,47.1616211 L257.890724,47.3862305 C257.890724,48.546718 256.842557,49.4451466 254.746193,50.081543 C253.099049,49.7820623 252.275489,49.4825861 252.275489,49.1831055 L252.275489,48.9584961 L254.521583,47.3862305 L254.521583,47.1616211 C252.724699,45.1775617 251.826271,43.5304427 251.826271,42.2202148 C251.826271,40.4233309 254.521556,39.5249023 259.912208,39.5249023 L259.912208,39.5249023 Z"></path>
                        </g>
                    </g>
                </g>
            </g>
        </g>
    </g>
</svg>